G04 (created by PCBNEW (2013-04-05 BZR 4064)-testing) date 05/08/2013 18:39:14*
%MOIN*%
G04 Gerber Fmt 3.4, Leading zero omitted, Abs format*
%FSLAX34Y34*%
G01*
G70*
G90*
G04 APERTURE LIST*
%ADD10C,0.00393701*%
%ADD11R,0.0826772X0.0550709*%
%ADD12R,0.070874X0.0550709*%
%ADD13C,0.125984*%
%ADD14R,0.0669291X0.0669291*%
%ADD15C,0.0669291*%
%ADD16R,0.00787402X0.00787402*%
%ADD17O,0.0629921X0.023622*%
%ADD18R,0.0629921X0.023622*%
%ADD19R,0.0669291X0.106299*%
%ADD20R,0.106299X0.0669291*%
%ADD21R,0.023622X0.0570866*%
%ADD22R,0.0511732X0.0255748*%
%ADD23O,0.0511732X0.0255748*%
%ADD24R,0.151874X0.087874*%
%ADD25R,0.047874X0.087874*%
%ADD26R,0.0629764X0.0629764*%
%ADD27C,0.0629724*%
%ADD28R,0.062874X0.062874*%
%ADD29C,0.062874*%
%ADD30R,0.042874X0.047874*%
%ADD31R,0.047874X0.042874*%
%ADD32R,0.0196772X0.0550709*%
%ADD33O,0.0196732X0.0550748*%
%ADD34O,0.0550748X0.0196732*%
%ADD35R,0.0708661X0.0708661*%
%ADD36C,0.0708661*%
%ADD37C,0.244075*%
%ADD38R,0.052874X0.062874*%
%ADD39R,0.062874X0.052874*%
G04 APERTURE END LIST*
G54D10*
G54D11*
X69508Y-55236D03*
X70964Y-55236D03*
X70964Y-54370D03*
X69508Y-54370D03*
G54D12*
X87220Y-59630D03*
X87220Y-57850D03*
X90260Y-59630D03*
X90260Y-57850D03*
X87224Y-58740D03*
G54D13*
X91370Y-42566D03*
X87370Y-42566D03*
G54D14*
X89370Y-44566D03*
G54D15*
X88370Y-44566D03*
G54D13*
X79559Y-42566D03*
X75559Y-42566D03*
G54D14*
X77559Y-44566D03*
G54D15*
X76559Y-44566D03*
G54D16*
X79921Y-48966D03*
G54D17*
X79921Y-48710D03*
X79921Y-48454D03*
X79921Y-48198D03*
X78188Y-48198D03*
X78188Y-48435D03*
X78188Y-48710D03*
X78188Y-48966D03*
G54D18*
X79921Y-48966D03*
G54D16*
X87637Y-47470D03*
G54D17*
X87637Y-47214D03*
X87637Y-46958D03*
X87637Y-46702D03*
X85905Y-46702D03*
X85905Y-46938D03*
X85905Y-47214D03*
X85905Y-47470D03*
G54D18*
X87637Y-47470D03*
G54D16*
X87637Y-48887D03*
G54D17*
X87637Y-48631D03*
X87637Y-48375D03*
X87637Y-48120D03*
X85905Y-48120D03*
X85905Y-48356D03*
X85905Y-48631D03*
X85905Y-48887D03*
G54D18*
X87637Y-48887D03*
G54D19*
X71712Y-40531D03*
X67657Y-40531D03*
X71712Y-42185D03*
X67657Y-42185D03*
G54D20*
X70551Y-43051D03*
X68818Y-43051D03*
G54D21*
X70196Y-42312D03*
X69940Y-42312D03*
X69685Y-42312D03*
X69429Y-42312D03*
X69173Y-42312D03*
G54D22*
X78543Y-46781D03*
G54D23*
X78543Y-47037D03*
X78543Y-47293D03*
X79567Y-46781D03*
X79567Y-47549D03*
X79567Y-47293D03*
X78543Y-47549D03*
X79567Y-47037D03*
G54D24*
X79724Y-54802D03*
G54D25*
X79724Y-57402D03*
X80624Y-57402D03*
X78824Y-57402D03*
G54D24*
X76181Y-54802D03*
G54D25*
X76181Y-57402D03*
X77081Y-57402D03*
X75281Y-57402D03*
G54D26*
X65000Y-48744D03*
G54D27*
X65000Y-47744D03*
X65000Y-46744D03*
X65000Y-45744D03*
G54D28*
X65000Y-51944D03*
G54D29*
X65000Y-50944D03*
X65000Y-49944D03*
G54D30*
X91196Y-55905D03*
X91796Y-55905D03*
X77465Y-46614D03*
X76865Y-46614D03*
X76865Y-47322D03*
X77465Y-47322D03*
X91196Y-51181D03*
X91796Y-51181D03*
X77465Y-51417D03*
X76865Y-51417D03*
X88912Y-48110D03*
X89512Y-48110D03*
X91589Y-59606D03*
X92189Y-59606D03*
X69936Y-53307D03*
X70536Y-53307D03*
X91196Y-53543D03*
X91796Y-53543D03*
X74109Y-50787D03*
X74709Y-50787D03*
G54D31*
X84645Y-45969D03*
X84645Y-45369D03*
X85354Y-45969D03*
X85354Y-45369D03*
G54D30*
X76865Y-50708D03*
X77465Y-50708D03*
X89512Y-48818D03*
X88912Y-48818D03*
G54D31*
X71889Y-54503D03*
X71889Y-55103D03*
X68582Y-55103D03*
X68582Y-54503D03*
G54D30*
X74109Y-48346D03*
X74709Y-48346D03*
G54D31*
X68976Y-45890D03*
X68976Y-45290D03*
G54D30*
X74109Y-47559D03*
X74709Y-47559D03*
G54D31*
X68188Y-45929D03*
X68188Y-45329D03*
G54D30*
X67189Y-51181D03*
X66589Y-51181D03*
G54D31*
X69055Y-53007D03*
X69055Y-53607D03*
X71417Y-53007D03*
X71417Y-53607D03*
G54D32*
X69070Y-51972D03*
G54D33*
X69266Y-51972D03*
X69463Y-51972D03*
X69660Y-51972D03*
X69857Y-51972D03*
X70054Y-51972D03*
X70251Y-51972D03*
X70448Y-51972D03*
X70643Y-51973D03*
X70840Y-51973D03*
X71037Y-51973D03*
X71234Y-51974D03*
X71432Y-51973D03*
X71629Y-51973D03*
X71826Y-51973D03*
X72022Y-51973D03*
G54D34*
X72809Y-51185D03*
X72809Y-50988D03*
X72809Y-50791D03*
X72809Y-50595D03*
X72809Y-50398D03*
X72809Y-50201D03*
X72809Y-50005D03*
X72809Y-49808D03*
G54D33*
X72022Y-47444D03*
X71825Y-47444D03*
X71628Y-47444D03*
X71431Y-47444D03*
G54D34*
X72810Y-49611D03*
X72810Y-49414D03*
X72810Y-49217D03*
X72810Y-49020D03*
X72810Y-48823D03*
X72810Y-48626D03*
X72810Y-48429D03*
X72810Y-48233D03*
G54D33*
X71235Y-47445D03*
X71038Y-47445D03*
X70841Y-47445D03*
X70644Y-47445D03*
X70448Y-47445D03*
X70251Y-47445D03*
X70054Y-47445D03*
X69857Y-47445D03*
X69660Y-47445D03*
X69463Y-47445D03*
X69266Y-47445D03*
X69070Y-47445D03*
G54D34*
X68282Y-48233D03*
X68282Y-48429D03*
X68282Y-48626D03*
X68282Y-48823D03*
X68282Y-49020D03*
X68282Y-49217D03*
X68282Y-49414D03*
X68282Y-49611D03*
X68282Y-49807D03*
X68282Y-50004D03*
X68282Y-50201D03*
X68282Y-50398D03*
X68282Y-50595D03*
X68282Y-50792D03*
X68282Y-50989D03*
X68282Y-51185D03*
G54D35*
X92807Y-53543D03*
G54D36*
X93807Y-53543D03*
G54D35*
X92807Y-51181D03*
G54D36*
X93807Y-51181D03*
G54D35*
X92807Y-55905D03*
G54D36*
X93807Y-55905D03*
G54D37*
X94094Y-41338D03*
X94094Y-59055D03*
X65748Y-59055D03*
X65748Y-41338D03*
G54D38*
X78576Y-45826D03*
X79376Y-45826D03*
X74009Y-46692D03*
X74809Y-46692D03*
X76765Y-45826D03*
X77565Y-45826D03*
G54D39*
X77165Y-59848D03*
X77165Y-59048D03*
X76181Y-59848D03*
X76181Y-59048D03*
X79724Y-59848D03*
X79724Y-59048D03*
X80708Y-59848D03*
X80708Y-59048D03*
G54D38*
X78655Y-49921D03*
X79455Y-49921D03*
X77565Y-49921D03*
X76765Y-49921D03*
X89612Y-49606D03*
X88812Y-49606D03*
X80544Y-46771D03*
X81344Y-46771D03*
M02*
