G04 (created by PCBNEW (2013-04-05 BZR 4064)-testing) date 05/08/2013 18:39:14*
%MOIN*%
G04 Gerber Fmt 3.4, Leading zero omitted, Abs format*
%FSLAX34Y34*%
G01*
G70*
G90*
G04 APERTURE LIST*
%ADD10C,0.00393701*%
%ADD11C,0.11811*%
%ADD12R,0.0590551X0.0590551*%
%ADD13C,0.0590551*%
%ADD14R,0.0551024X0.0551024*%
%ADD15C,0.0550984*%
%ADD16R,0.055X0.055*%
%ADD17C,0.055*%
%ADD18R,0.0629921X0.0629921*%
%ADD19C,0.0629921*%
%ADD20C,0.236201*%
%ADD21C,0.035*%
%ADD22C,0.0354331*%
%ADD23C,0.019685*%
%ADD24C,0.00787402*%
%ADD25C,0.01*%
G04 APERTURE END LIST*
G54D10*
G54D11*
X91370Y-42566D03*
X87370Y-42566D03*
G54D12*
X89370Y-44566D03*
G54D13*
X88370Y-44566D03*
G54D11*
X79559Y-42566D03*
X75559Y-42566D03*
G54D12*
X77559Y-44566D03*
G54D13*
X76559Y-44566D03*
G54D14*
X65000Y-48744D03*
G54D15*
X65000Y-47744D03*
X65000Y-46744D03*
X65000Y-45744D03*
G54D16*
X65000Y-51944D03*
G54D17*
X65000Y-50944D03*
X65000Y-49944D03*
G54D18*
X92807Y-53543D03*
G54D19*
X93807Y-53543D03*
G54D18*
X92807Y-51181D03*
G54D19*
X93807Y-51181D03*
G54D18*
X92807Y-55905D03*
G54D19*
X93807Y-55905D03*
G54D20*
X94094Y-41338D03*
X94094Y-59055D03*
X65748Y-59055D03*
X65748Y-41338D03*
G54D21*
X87007Y-49921D03*
G54D22*
X79724Y-53740D03*
X87165Y-56771D03*
X84645Y-47716D03*
X73346Y-51417D03*
X72125Y-52992D03*
X73346Y-46574D03*
X67598Y-46574D03*
X67598Y-51929D03*
X68228Y-52992D03*
X65748Y-51062D03*
X70826Y-42322D03*
X78070Y-59055D03*
X81653Y-59055D03*
X72795Y-40984D03*
X72795Y-44330D03*
X72362Y-40984D03*
X72362Y-45118D03*
X77283Y-48188D03*
X77637Y-49015D03*
X73228Y-40984D03*
X73228Y-43543D03*
X85157Y-46929D03*
X85157Y-52125D03*
X85511Y-52440D03*
X88346Y-46811D03*
X66181Y-47834D03*
X66811Y-48503D03*
X66417Y-44645D03*
X68622Y-44645D03*
X66377Y-49606D03*
G54D21*
X85669Y-57716D03*
X67559Y-53622D03*
X69842Y-58188D03*
X85275Y-53937D03*
X66614Y-46456D03*
X74251Y-49212D03*
X70236Y-49448D03*
X81889Y-49212D03*
X82440Y-52834D03*
X79527Y-52755D03*
X77322Y-52755D03*
X91496Y-52519D03*
X91496Y-54724D03*
X91968Y-58031D03*
X91889Y-56929D03*
X89842Y-56771D03*
X88031Y-56692D03*
X89370Y-54960D03*
X87086Y-54881D03*
X89527Y-52834D03*
X87086Y-52834D03*
X83937Y-59448D03*
X84094Y-57637D03*
X84173Y-55354D03*
X82125Y-55354D03*
X73307Y-53543D03*
X71811Y-59606D03*
X71889Y-57244D03*
X70157Y-59606D03*
X67874Y-59527D03*
X73149Y-59606D03*
X72992Y-57086D03*
X70551Y-57086D03*
X68897Y-57165D03*
X67480Y-57165D03*
X65275Y-57165D03*
X65511Y-55039D03*
X65590Y-53385D03*
X75748Y-46692D03*
X79606Y-50944D03*
X82834Y-50393D03*
X81968Y-45275D03*
X93228Y-48267D03*
X91968Y-49763D03*
X94960Y-49685D03*
X94960Y-48267D03*
X91968Y-47480D03*
X93228Y-46456D03*
X94960Y-46456D03*
X94960Y-43937D03*
X91417Y-43858D03*
X88582Y-43700D03*
X84251Y-43543D03*
X81968Y-43543D03*
X77637Y-43700D03*
X74803Y-43779D03*
X68110Y-44094D03*
X64881Y-43307D03*
X75196Y-41417D03*
X76929Y-41417D03*
X79606Y-41338D03*
X81496Y-41338D03*
X84330Y-41102D03*
X86062Y-41102D03*
X88897Y-41181D03*
X91102Y-41181D03*
G54D22*
X86692Y-47401D03*
X87204Y-45748D03*
X75196Y-52755D03*
X75196Y-51417D03*
X67047Y-49527D03*
X75629Y-50196D03*
X75629Y-48346D03*
X65748Y-44645D03*
X70354Y-45944D03*
X79173Y-48454D03*
X73661Y-40984D03*
X73661Y-42716D03*
X74094Y-40984D03*
X74094Y-41850D03*
G54D21*
X81259Y-47480D03*
G54D22*
X76181Y-53267D03*
X84291Y-49251D03*
X81259Y-50629D03*
X76181Y-51417D03*
X76181Y-47637D03*
G54D23*
X79724Y-53740D02*
X75669Y-53740D01*
X75669Y-53740D02*
X73346Y-51417D01*
X79724Y-53740D02*
X83228Y-53740D01*
X83228Y-53740D02*
X84645Y-52233D01*
X84645Y-52233D02*
X84645Y-47716D01*
X83228Y-53740D02*
X87165Y-56771D01*
X73346Y-51417D02*
X73346Y-46574D01*
X73346Y-46574D02*
X67598Y-46574D01*
X67598Y-46574D02*
X67598Y-51929D01*
X67598Y-51929D02*
X67598Y-52559D01*
X67598Y-52559D02*
X68228Y-52992D01*
X68228Y-52992D02*
X72125Y-52992D01*
X67598Y-51929D02*
X67086Y-51929D01*
X67086Y-51929D02*
X66141Y-51929D01*
X66141Y-51929D02*
X65748Y-51535D01*
X65748Y-51535D02*
X65748Y-51062D01*
X78070Y-59055D02*
X78070Y-57086D01*
X78070Y-57086D02*
X77007Y-56023D01*
X77007Y-56023D02*
X65275Y-56023D01*
X65275Y-56023D02*
X64488Y-54566D01*
X64488Y-54566D02*
X64488Y-53031D01*
X64488Y-53031D02*
X64488Y-44842D01*
X64488Y-44842D02*
X65748Y-43582D01*
X65748Y-43582D02*
X70157Y-43582D01*
X70157Y-43582D02*
X70826Y-42795D01*
X70826Y-42795D02*
X70826Y-42322D01*
X78070Y-59055D02*
X81653Y-59055D01*
G54D24*
X72795Y-40984D02*
X72795Y-44173D01*
X72795Y-44173D02*
X72795Y-44330D01*
X72362Y-40984D02*
X72362Y-45118D01*
X77283Y-48188D02*
X77637Y-49015D01*
X73228Y-40984D02*
X73228Y-43543D01*
X85157Y-46929D02*
X85157Y-52125D01*
X88346Y-46811D02*
X85511Y-49606D01*
X85511Y-49606D02*
X85511Y-52440D01*
X66181Y-47834D02*
X66811Y-48503D01*
X66417Y-44645D02*
X68622Y-44645D01*
X65000Y-50944D02*
X66377Y-49606D01*
G54D23*
X75559Y-42566D02*
X75802Y-42459D01*
X65000Y-46744D02*
X65748Y-45956D01*
X65000Y-49944D02*
X65748Y-49157D01*
X79559Y-42566D02*
X87370Y-42566D01*
X86692Y-47401D02*
X86692Y-46259D01*
X86692Y-46259D02*
X87204Y-45748D01*
X75196Y-52755D02*
X75196Y-51417D01*
X65748Y-49157D02*
X66771Y-49157D01*
X66771Y-49157D02*
X67047Y-49527D01*
X75629Y-50196D02*
X75629Y-48346D01*
X65748Y-44645D02*
X65748Y-45956D01*
X70354Y-45944D02*
X72677Y-45944D01*
X72677Y-45944D02*
X73543Y-45944D01*
X73543Y-45944D02*
X75559Y-43858D01*
X75559Y-43858D02*
X75559Y-42566D01*
X79173Y-48454D02*
X79559Y-47992D01*
X79559Y-47992D02*
X79559Y-42566D01*
X65748Y-45956D02*
X65748Y-49157D01*
X64881Y-43307D02*
X64881Y-42440D01*
X64881Y-42440D02*
X65748Y-41338D01*
X66614Y-46456D02*
X65748Y-45956D01*
X89527Y-52834D02*
X91496Y-52519D01*
X89370Y-54960D02*
X91496Y-54724D01*
X79606Y-50944D02*
X79527Y-52755D01*
X79527Y-52755D02*
X77322Y-52755D01*
X82440Y-52834D02*
X82834Y-50393D01*
G54D24*
X73661Y-40984D02*
X73661Y-42716D01*
X74094Y-40984D02*
X74094Y-41850D01*
G54D23*
X81259Y-50629D02*
X81259Y-52086D01*
X81259Y-52086D02*
X80078Y-53267D01*
X76181Y-53267D02*
X76181Y-51417D01*
X76181Y-51417D02*
X76181Y-47637D01*
X81259Y-47480D02*
X81259Y-50629D01*
X84291Y-49251D02*
X84291Y-52007D01*
X84291Y-52007D02*
X83031Y-53267D01*
X83031Y-53267D02*
X80078Y-53267D01*
X80078Y-53267D02*
X76181Y-53267D01*
G54D10*
G36*
X70579Y-42705D02*
X70043Y-43335D01*
X67103Y-43335D01*
X67103Y-41346D01*
X67079Y-41083D01*
X67004Y-40829D01*
X66881Y-40595D01*
X66872Y-40581D01*
X66710Y-40444D01*
X66642Y-40513D01*
X66642Y-40376D01*
X66505Y-40214D01*
X66272Y-40088D01*
X66019Y-40010D01*
X65756Y-39982D01*
X65492Y-40007D01*
X65239Y-40082D01*
X65004Y-40204D01*
X64990Y-40214D01*
X64854Y-40376D01*
X65748Y-41270D01*
X66642Y-40376D01*
X66642Y-40513D01*
X65816Y-41338D01*
X66710Y-42232D01*
X66872Y-42095D01*
X66998Y-41862D01*
X67076Y-41610D01*
X67103Y-41346D01*
X67103Y-43335D01*
X66642Y-43335D01*
X66642Y-42301D01*
X65748Y-41407D01*
X65679Y-41475D01*
X65679Y-41338D01*
X64785Y-40444D01*
X64623Y-40581D01*
X64497Y-40814D01*
X64419Y-41067D01*
X64392Y-41330D01*
X64416Y-41593D01*
X64491Y-41847D01*
X64614Y-42081D01*
X64623Y-42095D01*
X64785Y-42232D01*
X65679Y-41338D01*
X65679Y-41475D01*
X64854Y-42301D01*
X64990Y-42463D01*
X65223Y-42588D01*
X65476Y-42666D01*
X65739Y-42694D01*
X66003Y-42670D01*
X66256Y-42595D01*
X66491Y-42472D01*
X66505Y-42463D01*
X66642Y-42301D01*
X66642Y-43335D01*
X65748Y-43335D01*
X65725Y-43338D01*
X65702Y-43340D01*
X65701Y-43340D01*
X65700Y-43340D01*
X65678Y-43347D01*
X65656Y-43353D01*
X65655Y-43354D01*
X65653Y-43354D01*
X65633Y-43365D01*
X65613Y-43375D01*
X65612Y-43376D01*
X65611Y-43377D01*
X65593Y-43391D01*
X65575Y-43405D01*
X65574Y-43407D01*
X65574Y-43407D01*
X65574Y-43407D01*
X65573Y-43408D01*
X64321Y-44659D01*
X64321Y-39912D01*
X68001Y-39912D01*
X68001Y-41968D01*
X68002Y-41982D01*
X68003Y-41996D01*
X68003Y-41996D01*
X68004Y-41997D01*
X68008Y-42010D01*
X68011Y-42024D01*
X68012Y-42024D01*
X68012Y-42025D01*
X68018Y-42037D01*
X68025Y-42049D01*
X68025Y-42050D01*
X68025Y-42050D01*
X68034Y-42061D01*
X68043Y-42072D01*
X68043Y-42072D01*
X68044Y-42073D01*
X68055Y-42081D01*
X68060Y-42086D01*
X68060Y-42175D01*
X70535Y-42175D01*
X70514Y-42223D01*
X70501Y-42286D01*
X70500Y-42350D01*
X70512Y-42413D01*
X70535Y-42472D01*
X70570Y-42526D01*
X70579Y-42535D01*
X70579Y-42705D01*
X70579Y-42705D01*
G37*
G54D25*
X70579Y-42705D02*
X70043Y-43335D01*
X67103Y-43335D01*
X67103Y-41346D01*
X67079Y-41083D01*
X67004Y-40829D01*
X66881Y-40595D01*
X66872Y-40581D01*
X66710Y-40444D01*
X66642Y-40513D01*
X66642Y-40376D01*
X66505Y-40214D01*
X66272Y-40088D01*
X66019Y-40010D01*
X65756Y-39982D01*
X65492Y-40007D01*
X65239Y-40082D01*
X65004Y-40204D01*
X64990Y-40214D01*
X64854Y-40376D01*
X65748Y-41270D01*
X66642Y-40376D01*
X66642Y-40513D01*
X65816Y-41338D01*
X66710Y-42232D01*
X66872Y-42095D01*
X66998Y-41862D01*
X67076Y-41610D01*
X67103Y-41346D01*
X67103Y-43335D01*
X66642Y-43335D01*
X66642Y-42301D01*
X65748Y-41407D01*
X65679Y-41475D01*
X65679Y-41338D01*
X64785Y-40444D01*
X64623Y-40581D01*
X64497Y-40814D01*
X64419Y-41067D01*
X64392Y-41330D01*
X64416Y-41593D01*
X64491Y-41847D01*
X64614Y-42081D01*
X64623Y-42095D01*
X64785Y-42232D01*
X65679Y-41338D01*
X65679Y-41475D01*
X64854Y-42301D01*
X64990Y-42463D01*
X65223Y-42588D01*
X65476Y-42666D01*
X65739Y-42694D01*
X66003Y-42670D01*
X66256Y-42595D01*
X66491Y-42472D01*
X66505Y-42463D01*
X66642Y-42301D01*
X66642Y-43335D01*
X65748Y-43335D01*
X65725Y-43338D01*
X65702Y-43340D01*
X65701Y-43340D01*
X65700Y-43340D01*
X65678Y-43347D01*
X65656Y-43353D01*
X65655Y-43354D01*
X65653Y-43354D01*
X65633Y-43365D01*
X65613Y-43375D01*
X65612Y-43376D01*
X65611Y-43377D01*
X65593Y-43391D01*
X65575Y-43405D01*
X65574Y-43407D01*
X65574Y-43407D01*
X65574Y-43407D01*
X65573Y-43408D01*
X64321Y-44659D01*
X64321Y-39912D01*
X68001Y-39912D01*
X68001Y-41968D01*
X68002Y-41982D01*
X68003Y-41996D01*
X68003Y-41996D01*
X68004Y-41997D01*
X68008Y-42010D01*
X68011Y-42024D01*
X68012Y-42024D01*
X68012Y-42025D01*
X68018Y-42037D01*
X68025Y-42049D01*
X68025Y-42050D01*
X68025Y-42050D01*
X68034Y-42061D01*
X68043Y-42072D01*
X68043Y-42072D01*
X68044Y-42073D01*
X68055Y-42081D01*
X68060Y-42086D01*
X68060Y-42175D01*
X70535Y-42175D01*
X70514Y-42223D01*
X70501Y-42286D01*
X70500Y-42350D01*
X70512Y-42413D01*
X70535Y-42472D01*
X70570Y-42526D01*
X70579Y-42535D01*
X70579Y-42705D01*
G54D10*
G36*
X95520Y-60481D02*
X95450Y-60481D01*
X95450Y-59063D01*
X95450Y-41346D01*
X95425Y-41083D01*
X95350Y-40829D01*
X95228Y-40595D01*
X95218Y-40581D01*
X95056Y-40444D01*
X94988Y-40513D01*
X94988Y-40376D01*
X94851Y-40214D01*
X94618Y-40088D01*
X94365Y-40010D01*
X94102Y-39982D01*
X93839Y-40007D01*
X93585Y-40082D01*
X93351Y-40204D01*
X93337Y-40214D01*
X93200Y-40376D01*
X94094Y-41270D01*
X94988Y-40376D01*
X94988Y-40513D01*
X94162Y-41338D01*
X95056Y-42232D01*
X95218Y-42095D01*
X95344Y-41862D01*
X95422Y-41610D01*
X95450Y-41346D01*
X95450Y-59063D01*
X95425Y-58800D01*
X95350Y-58546D01*
X95228Y-58311D01*
X95218Y-58297D01*
X95056Y-58161D01*
X94988Y-58229D01*
X94988Y-58092D01*
X94988Y-42301D01*
X94094Y-41407D01*
X94026Y-41475D01*
X94026Y-41338D01*
X93132Y-40444D01*
X92969Y-40581D01*
X92844Y-40814D01*
X92766Y-41067D01*
X92738Y-41330D01*
X92763Y-41593D01*
X92837Y-41847D01*
X92960Y-42081D01*
X92969Y-42095D01*
X93132Y-42232D01*
X94026Y-41338D01*
X94026Y-41475D01*
X93200Y-42301D01*
X93337Y-42463D01*
X93570Y-42588D01*
X93822Y-42666D01*
X94086Y-42694D01*
X94349Y-42670D01*
X94603Y-42595D01*
X94837Y-42472D01*
X94851Y-42463D01*
X94988Y-42301D01*
X94988Y-58092D01*
X94851Y-57930D01*
X94618Y-57804D01*
X94365Y-57726D01*
X94291Y-57719D01*
X94291Y-55877D01*
X94291Y-53515D01*
X94291Y-51152D01*
X94276Y-51059D01*
X94244Y-50970D01*
X94226Y-50936D01*
X94152Y-50903D01*
X94084Y-50972D01*
X94084Y-50835D01*
X94051Y-50761D01*
X93965Y-50722D01*
X93873Y-50700D01*
X93778Y-50696D01*
X93685Y-50711D01*
X93596Y-50743D01*
X93562Y-50761D01*
X93529Y-50835D01*
X93807Y-51112D01*
X94084Y-50835D01*
X94084Y-50972D01*
X93875Y-51181D01*
X94152Y-51458D01*
X94226Y-51425D01*
X94265Y-51339D01*
X94287Y-51247D01*
X94291Y-51152D01*
X94291Y-53515D01*
X94276Y-53421D01*
X94244Y-53332D01*
X94226Y-53298D01*
X94152Y-53265D01*
X94084Y-53334D01*
X94084Y-53197D01*
X94084Y-51526D01*
X93807Y-51249D01*
X93738Y-51318D01*
X93738Y-51181D01*
X93461Y-50903D01*
X93387Y-50936D01*
X93348Y-51022D01*
X93326Y-51114D01*
X93322Y-51209D01*
X93337Y-51302D01*
X93369Y-51391D01*
X93387Y-51425D01*
X93461Y-51458D01*
X93738Y-51181D01*
X93738Y-51318D01*
X93529Y-51526D01*
X93562Y-51600D01*
X93648Y-51639D01*
X93740Y-51661D01*
X93835Y-51665D01*
X93928Y-51650D01*
X94017Y-51618D01*
X94051Y-51600D01*
X94084Y-51526D01*
X94084Y-53197D01*
X94051Y-53124D01*
X93965Y-53084D01*
X93873Y-53062D01*
X93778Y-53058D01*
X93685Y-53073D01*
X93596Y-53106D01*
X93562Y-53124D01*
X93529Y-53197D01*
X93807Y-53474D01*
X94084Y-53197D01*
X94084Y-53334D01*
X93875Y-53543D01*
X94152Y-53820D01*
X94226Y-53788D01*
X94265Y-53701D01*
X94287Y-53609D01*
X94291Y-53515D01*
X94291Y-55877D01*
X94276Y-55783D01*
X94244Y-55694D01*
X94226Y-55660D01*
X94152Y-55628D01*
X94084Y-55696D01*
X94084Y-55559D01*
X94084Y-53889D01*
X93807Y-53611D01*
X93738Y-53680D01*
X93738Y-53543D01*
X93461Y-53265D01*
X93387Y-53298D01*
X93348Y-53384D01*
X93326Y-53476D01*
X93322Y-53571D01*
X93337Y-53665D01*
X93369Y-53754D01*
X93387Y-53788D01*
X93461Y-53820D01*
X93738Y-53543D01*
X93738Y-53680D01*
X93529Y-53889D01*
X93562Y-53962D01*
X93648Y-54002D01*
X93740Y-54024D01*
X93835Y-54027D01*
X93928Y-54013D01*
X94017Y-53980D01*
X94051Y-53962D01*
X94084Y-53889D01*
X94084Y-55559D01*
X94051Y-55486D01*
X93965Y-55446D01*
X93873Y-55424D01*
X93778Y-55420D01*
X93685Y-55435D01*
X93596Y-55468D01*
X93562Y-55486D01*
X93529Y-55559D01*
X93807Y-55837D01*
X94084Y-55559D01*
X94084Y-55696D01*
X93875Y-55905D01*
X94152Y-56182D01*
X94226Y-56150D01*
X94265Y-56064D01*
X94287Y-55972D01*
X94291Y-55877D01*
X94291Y-57719D01*
X94102Y-57699D01*
X94084Y-57701D01*
X94084Y-56251D01*
X93807Y-55973D01*
X93738Y-56042D01*
X93738Y-55905D01*
X93461Y-55628D01*
X93387Y-55660D01*
X93348Y-55746D01*
X93326Y-55839D01*
X93322Y-55933D01*
X93337Y-56027D01*
X93369Y-56116D01*
X93387Y-56150D01*
X93461Y-56182D01*
X93738Y-55905D01*
X93738Y-56042D01*
X93529Y-56251D01*
X93562Y-56324D01*
X93648Y-56364D01*
X93740Y-56386D01*
X93835Y-56390D01*
X93928Y-56375D01*
X94017Y-56342D01*
X94051Y-56324D01*
X94084Y-56251D01*
X94084Y-57701D01*
X93839Y-57723D01*
X93585Y-57798D01*
X93351Y-57921D01*
X93337Y-57930D01*
X93270Y-58009D01*
X93270Y-56206D01*
X93270Y-53844D01*
X93270Y-51482D01*
X93270Y-50851D01*
X93264Y-50823D01*
X93253Y-50796D01*
X93237Y-50771D01*
X93217Y-50751D01*
X93192Y-50734D01*
X93166Y-50723D01*
X93137Y-50717D01*
X93108Y-50717D01*
X92477Y-50717D01*
X92449Y-50723D01*
X92422Y-50734D01*
X92397Y-50750D01*
X92377Y-50771D01*
X92360Y-50795D01*
X92349Y-50822D01*
X92343Y-50850D01*
X92343Y-50879D01*
X92343Y-51510D01*
X92349Y-51539D01*
X92360Y-51566D01*
X92376Y-51590D01*
X92397Y-51610D01*
X92421Y-51627D01*
X92448Y-51638D01*
X92476Y-51644D01*
X92505Y-51644D01*
X93136Y-51644D01*
X93165Y-51638D01*
X93192Y-51627D01*
X93216Y-51611D01*
X93236Y-51591D01*
X93253Y-51566D01*
X93264Y-51540D01*
X93270Y-51511D01*
X93270Y-51482D01*
X93270Y-53844D01*
X93270Y-53213D01*
X93264Y-53185D01*
X93253Y-53158D01*
X93237Y-53134D01*
X93217Y-53113D01*
X93192Y-53097D01*
X93166Y-53085D01*
X93137Y-53080D01*
X93108Y-53079D01*
X92477Y-53079D01*
X92449Y-53085D01*
X92422Y-53096D01*
X92397Y-53112D01*
X92377Y-53133D01*
X92360Y-53157D01*
X92349Y-53184D01*
X92343Y-53212D01*
X92343Y-53241D01*
X92343Y-53872D01*
X92349Y-53901D01*
X92360Y-53928D01*
X92376Y-53952D01*
X92397Y-53973D01*
X92421Y-53989D01*
X92448Y-54000D01*
X92476Y-54006D01*
X92505Y-54006D01*
X93136Y-54006D01*
X93165Y-54001D01*
X93192Y-53989D01*
X93216Y-53973D01*
X93236Y-53953D01*
X93253Y-53929D01*
X93264Y-53902D01*
X93270Y-53873D01*
X93270Y-53844D01*
X93270Y-56206D01*
X93270Y-55575D01*
X93264Y-55547D01*
X93253Y-55520D01*
X93237Y-55496D01*
X93217Y-55475D01*
X93192Y-55459D01*
X93166Y-55448D01*
X93137Y-55442D01*
X93108Y-55442D01*
X92477Y-55442D01*
X92449Y-55447D01*
X92422Y-55458D01*
X92397Y-55474D01*
X92377Y-55495D01*
X92360Y-55519D01*
X92349Y-55546D01*
X92343Y-55574D01*
X92343Y-55604D01*
X92343Y-56235D01*
X92349Y-56263D01*
X92360Y-56290D01*
X92376Y-56314D01*
X92397Y-56335D01*
X92421Y-56351D01*
X92448Y-56362D01*
X92476Y-56368D01*
X92505Y-56369D01*
X93136Y-56368D01*
X93165Y-56363D01*
X93192Y-56352D01*
X93216Y-56336D01*
X93236Y-56315D01*
X93253Y-56291D01*
X93264Y-56264D01*
X93270Y-56236D01*
X93270Y-56206D01*
X93270Y-58009D01*
X93200Y-58092D01*
X94094Y-58986D01*
X94988Y-58092D01*
X94988Y-58229D01*
X94162Y-59055D01*
X95056Y-59949D01*
X95218Y-59812D01*
X95344Y-59579D01*
X95422Y-59326D01*
X95450Y-59063D01*
X95450Y-60481D01*
X94988Y-60481D01*
X94988Y-60017D01*
X94094Y-59123D01*
X94026Y-59192D01*
X94026Y-59055D01*
X93132Y-58161D01*
X92969Y-58297D01*
X92844Y-58530D01*
X92766Y-58783D01*
X92738Y-59046D01*
X92763Y-59310D01*
X92837Y-59563D01*
X92960Y-59798D01*
X92969Y-59812D01*
X93132Y-59949D01*
X94026Y-59055D01*
X94026Y-59192D01*
X93200Y-60017D01*
X93337Y-60179D01*
X93570Y-60305D01*
X93822Y-60383D01*
X94086Y-60410D01*
X94349Y-60386D01*
X94603Y-60311D01*
X94837Y-60188D01*
X94851Y-60179D01*
X94988Y-60017D01*
X94988Y-60481D01*
X92132Y-60481D01*
X92132Y-42550D01*
X92114Y-42402D01*
X92068Y-42261D01*
X92014Y-42158D01*
X91912Y-42092D01*
X91844Y-42161D01*
X91844Y-42024D01*
X91778Y-41922D01*
X91645Y-41855D01*
X91501Y-41816D01*
X91353Y-41804D01*
X91205Y-41822D01*
X91064Y-41868D01*
X90962Y-41922D01*
X90896Y-42024D01*
X91370Y-42498D01*
X91844Y-42024D01*
X91844Y-42161D01*
X91438Y-42566D01*
X91912Y-43040D01*
X92014Y-42974D01*
X92081Y-42842D01*
X92120Y-42698D01*
X92132Y-42550D01*
X92132Y-60481D01*
X91844Y-60481D01*
X91844Y-43109D01*
X91370Y-42635D01*
X91301Y-42703D01*
X91301Y-42566D01*
X90827Y-42092D01*
X90726Y-42158D01*
X90659Y-42291D01*
X90619Y-42435D01*
X90607Y-42583D01*
X90625Y-42731D01*
X90671Y-42872D01*
X90726Y-42974D01*
X90827Y-43040D01*
X91301Y-42566D01*
X91301Y-42703D01*
X90896Y-43109D01*
X90962Y-43210D01*
X91094Y-43277D01*
X91238Y-43317D01*
X91386Y-43329D01*
X91534Y-43311D01*
X91675Y-43265D01*
X91778Y-43210D01*
X91844Y-43109D01*
X91844Y-60481D01*
X89813Y-60481D01*
X89813Y-44848D01*
X89813Y-44257D01*
X89808Y-44228D01*
X89797Y-44201D01*
X89780Y-44177D01*
X89760Y-44156D01*
X89736Y-44140D01*
X89709Y-44129D01*
X89680Y-44123D01*
X89651Y-44123D01*
X89060Y-44123D01*
X89031Y-44128D01*
X89004Y-44139D01*
X88980Y-44156D01*
X88959Y-44176D01*
X88943Y-44200D01*
X88932Y-44227D01*
X88926Y-44256D01*
X88926Y-44285D01*
X88926Y-44876D01*
X88932Y-44905D01*
X88943Y-44932D01*
X88959Y-44956D01*
X88979Y-44977D01*
X89003Y-44993D01*
X89030Y-45004D01*
X89059Y-45010D01*
X89088Y-45010D01*
X89679Y-45010D01*
X89708Y-45004D01*
X89735Y-44993D01*
X89759Y-44977D01*
X89780Y-44957D01*
X89796Y-44933D01*
X89807Y-44906D01*
X89813Y-44877D01*
X89813Y-44848D01*
X89813Y-60481D01*
X88834Y-60481D01*
X88834Y-44537D01*
X88820Y-44448D01*
X88788Y-44363D01*
X88773Y-44333D01*
X88701Y-44303D01*
X88633Y-44372D01*
X88633Y-44235D01*
X88603Y-44163D01*
X88520Y-44126D01*
X88431Y-44105D01*
X88341Y-44102D01*
X88251Y-44116D01*
X88166Y-44148D01*
X88137Y-44163D01*
X88132Y-44175D01*
X88132Y-42550D01*
X88114Y-42402D01*
X88068Y-42261D01*
X88014Y-42158D01*
X87912Y-42092D01*
X87844Y-42161D01*
X87844Y-42024D01*
X87778Y-41922D01*
X87645Y-41855D01*
X87501Y-41816D01*
X87353Y-41804D01*
X87205Y-41822D01*
X87064Y-41868D01*
X86962Y-41922D01*
X86896Y-42024D01*
X87370Y-42498D01*
X87844Y-42024D01*
X87844Y-42161D01*
X87438Y-42566D01*
X87912Y-43040D01*
X88014Y-42974D01*
X88081Y-42842D01*
X88120Y-42698D01*
X88132Y-42550D01*
X88132Y-44175D01*
X88106Y-44235D01*
X88370Y-44498D01*
X88633Y-44235D01*
X88633Y-44372D01*
X88438Y-44566D01*
X88701Y-44830D01*
X88773Y-44799D01*
X88810Y-44717D01*
X88831Y-44628D01*
X88834Y-44537D01*
X88834Y-60481D01*
X88672Y-60481D01*
X88672Y-46779D01*
X88659Y-46716D01*
X88635Y-46657D01*
X88633Y-46654D01*
X88633Y-44898D01*
X88370Y-44635D01*
X88301Y-44703D01*
X88301Y-44566D01*
X88038Y-44303D01*
X87966Y-44333D01*
X87929Y-44416D01*
X87908Y-44505D01*
X87905Y-44595D01*
X87919Y-44685D01*
X87951Y-44770D01*
X87966Y-44799D01*
X88038Y-44830D01*
X88301Y-44566D01*
X88301Y-44703D01*
X88106Y-44898D01*
X88137Y-44970D01*
X88219Y-45007D01*
X88308Y-45028D01*
X88399Y-45031D01*
X88488Y-45017D01*
X88573Y-44985D01*
X88603Y-44970D01*
X88633Y-44898D01*
X88633Y-46654D01*
X88599Y-46604D01*
X88555Y-46558D01*
X88502Y-46523D01*
X88443Y-46498D01*
X88380Y-46485D01*
X88316Y-46485D01*
X88254Y-46497D01*
X88194Y-46521D01*
X88141Y-46556D01*
X88095Y-46600D01*
X88059Y-46653D01*
X88034Y-46712D01*
X88021Y-46774D01*
X88020Y-46838D01*
X88025Y-46864D01*
X87844Y-47042D01*
X87844Y-43109D01*
X87370Y-42635D01*
X87301Y-42703D01*
X87301Y-42566D01*
X86827Y-42092D01*
X86726Y-42158D01*
X86659Y-42291D01*
X86619Y-42435D01*
X86607Y-42583D01*
X86625Y-42731D01*
X86671Y-42872D01*
X86726Y-42974D01*
X86827Y-43040D01*
X87301Y-42566D01*
X87301Y-42703D01*
X86896Y-43109D01*
X86962Y-43210D01*
X87094Y-43277D01*
X87238Y-43317D01*
X87386Y-43329D01*
X87534Y-43311D01*
X87675Y-43265D01*
X87778Y-43210D01*
X87844Y-43109D01*
X87844Y-47042D01*
X85379Y-49472D01*
X85368Y-49486D01*
X85356Y-49500D01*
X85356Y-49500D01*
X85356Y-49500D01*
X85347Y-49516D01*
X85345Y-49521D01*
X85345Y-47195D01*
X85358Y-47186D01*
X85405Y-47142D01*
X85441Y-47090D01*
X85467Y-47032D01*
X85482Y-46970D01*
X85483Y-46897D01*
X85470Y-46834D01*
X85446Y-46775D01*
X85411Y-46722D01*
X85366Y-46677D01*
X85313Y-46641D01*
X85254Y-46616D01*
X85191Y-46603D01*
X85127Y-46603D01*
X85065Y-46615D01*
X85005Y-46639D01*
X84952Y-46674D01*
X84906Y-46718D01*
X84870Y-46771D01*
X84845Y-46830D01*
X84832Y-46892D01*
X84831Y-46956D01*
X84842Y-47019D01*
X84866Y-47078D01*
X84901Y-47132D01*
X84945Y-47178D01*
X84969Y-47195D01*
X84969Y-47676D01*
X84958Y-47621D01*
X84934Y-47562D01*
X84899Y-47509D01*
X84854Y-47464D01*
X84801Y-47428D01*
X84742Y-47404D01*
X84679Y-47391D01*
X84616Y-47390D01*
X84553Y-47402D01*
X84494Y-47426D01*
X84440Y-47461D01*
X84395Y-47506D01*
X84358Y-47558D01*
X84333Y-47617D01*
X84320Y-47680D01*
X84319Y-47743D01*
X84331Y-47806D01*
X84354Y-47866D01*
X84389Y-47919D01*
X84398Y-47929D01*
X84398Y-48943D01*
X84388Y-48939D01*
X84325Y-48926D01*
X84261Y-48926D01*
X84198Y-48938D01*
X84139Y-48962D01*
X84086Y-48996D01*
X84040Y-49041D01*
X84004Y-49094D01*
X83979Y-49153D01*
X83966Y-49215D01*
X83965Y-49279D01*
X83976Y-49342D01*
X84000Y-49401D01*
X84034Y-49455D01*
X84044Y-49465D01*
X84044Y-51905D01*
X82929Y-53020D01*
X80674Y-53020D01*
X81434Y-52261D01*
X81448Y-52243D01*
X81463Y-52226D01*
X81464Y-52224D01*
X81464Y-52223D01*
X81475Y-52203D01*
X81486Y-52183D01*
X81487Y-52182D01*
X81487Y-52181D01*
X81494Y-52159D01*
X81501Y-52137D01*
X81501Y-52136D01*
X81501Y-52135D01*
X81504Y-52112D01*
X81506Y-52090D01*
X81506Y-52087D01*
X81506Y-52087D01*
X81506Y-52087D01*
X81506Y-52086D01*
X81506Y-50844D01*
X81507Y-50843D01*
X81544Y-50791D01*
X81570Y-50733D01*
X81584Y-50670D01*
X81585Y-50597D01*
X81573Y-50535D01*
X81548Y-50476D01*
X81513Y-50423D01*
X81506Y-50416D01*
X81506Y-47691D01*
X81542Y-47640D01*
X81568Y-47582D01*
X81582Y-47521D01*
X81583Y-47448D01*
X81570Y-47386D01*
X81546Y-47327D01*
X81511Y-47274D01*
X81466Y-47229D01*
X81414Y-47194D01*
X81355Y-47169D01*
X81293Y-47157D01*
X81230Y-47156D01*
X81168Y-47168D01*
X81109Y-47192D01*
X81056Y-47227D01*
X81010Y-47271D01*
X80975Y-47323D01*
X80950Y-47382D01*
X80936Y-47444D01*
X80935Y-47507D01*
X80947Y-47569D01*
X80970Y-47628D01*
X81005Y-47682D01*
X81012Y-47690D01*
X81012Y-50415D01*
X81009Y-50419D01*
X80973Y-50472D01*
X80947Y-50530D01*
X80934Y-50593D01*
X80933Y-50657D01*
X80945Y-50720D01*
X80968Y-50779D01*
X81003Y-50833D01*
X81012Y-50843D01*
X81012Y-51984D01*
X80321Y-52676D01*
X80321Y-42550D01*
X80303Y-42402D01*
X80257Y-42261D01*
X80203Y-42158D01*
X80101Y-42092D01*
X80032Y-42161D01*
X80032Y-42024D01*
X79967Y-41922D01*
X79834Y-41855D01*
X79690Y-41816D01*
X79542Y-41804D01*
X79394Y-41822D01*
X79253Y-41868D01*
X79151Y-41922D01*
X79085Y-42024D01*
X79559Y-42498D01*
X80032Y-42024D01*
X80032Y-42161D01*
X79627Y-42566D01*
X80101Y-43040D01*
X80203Y-42974D01*
X80269Y-42842D01*
X80309Y-42698D01*
X80321Y-42550D01*
X80321Y-52676D01*
X80032Y-52964D01*
X80032Y-43109D01*
X79559Y-42635D01*
X79490Y-42703D01*
X79490Y-42566D01*
X79016Y-42092D01*
X78915Y-42158D01*
X78848Y-42291D01*
X78808Y-42435D01*
X78796Y-42583D01*
X78814Y-42731D01*
X78860Y-42872D01*
X78915Y-42974D01*
X79016Y-43040D01*
X79490Y-42566D01*
X79490Y-42703D01*
X79085Y-43109D01*
X79151Y-43210D01*
X79283Y-43277D01*
X79427Y-43317D01*
X79575Y-43329D01*
X79723Y-43311D01*
X79864Y-43265D01*
X79967Y-43210D01*
X80032Y-43109D01*
X80032Y-52964D01*
X79976Y-53020D01*
X78002Y-53020D01*
X78002Y-44848D01*
X78002Y-44257D01*
X77997Y-44228D01*
X77986Y-44201D01*
X77969Y-44177D01*
X77949Y-44156D01*
X77925Y-44140D01*
X77898Y-44129D01*
X77869Y-44123D01*
X77840Y-44123D01*
X77249Y-44123D01*
X77220Y-44128D01*
X77193Y-44139D01*
X77169Y-44156D01*
X77148Y-44176D01*
X77132Y-44200D01*
X77121Y-44227D01*
X77115Y-44256D01*
X77115Y-44285D01*
X77115Y-44876D01*
X77121Y-44905D01*
X77132Y-44932D01*
X77148Y-44956D01*
X77168Y-44977D01*
X77192Y-44993D01*
X77219Y-45004D01*
X77248Y-45010D01*
X77277Y-45010D01*
X77868Y-45010D01*
X77897Y-45004D01*
X77924Y-44993D01*
X77948Y-44977D01*
X77969Y-44957D01*
X77985Y-44933D01*
X77996Y-44906D01*
X78002Y-44877D01*
X78002Y-44848D01*
X78002Y-53020D01*
X77963Y-53020D01*
X77963Y-48983D01*
X77950Y-48921D01*
X77926Y-48862D01*
X77891Y-48808D01*
X77846Y-48763D01*
X77793Y-48727D01*
X77734Y-48703D01*
X77705Y-48697D01*
X77561Y-48360D01*
X77567Y-48350D01*
X77593Y-48292D01*
X77608Y-48229D01*
X77609Y-48157D01*
X77596Y-48094D01*
X77572Y-48035D01*
X77537Y-47982D01*
X77492Y-47936D01*
X77439Y-47901D01*
X77380Y-47876D01*
X77317Y-47863D01*
X77253Y-47863D01*
X77191Y-47875D01*
X77131Y-47899D01*
X77078Y-47934D01*
X77032Y-47978D01*
X77023Y-47991D01*
X77023Y-44537D01*
X77009Y-44448D01*
X76977Y-44363D01*
X76962Y-44333D01*
X76890Y-44303D01*
X76822Y-44372D01*
X76822Y-44235D01*
X76792Y-44163D01*
X76709Y-44126D01*
X76620Y-44105D01*
X76530Y-44102D01*
X76440Y-44116D01*
X76355Y-44148D01*
X76326Y-44163D01*
X76321Y-44175D01*
X76321Y-42550D01*
X76303Y-42402D01*
X76257Y-42261D01*
X76203Y-42158D01*
X76101Y-42092D01*
X76032Y-42161D01*
X76032Y-42024D01*
X75967Y-41922D01*
X75834Y-41855D01*
X75690Y-41816D01*
X75542Y-41804D01*
X75394Y-41822D01*
X75253Y-41868D01*
X75151Y-41922D01*
X75085Y-42024D01*
X75559Y-42498D01*
X76032Y-42024D01*
X76032Y-42161D01*
X75627Y-42566D01*
X76101Y-43040D01*
X76203Y-42974D01*
X76269Y-42842D01*
X76309Y-42698D01*
X76321Y-42550D01*
X76321Y-44175D01*
X76295Y-44235D01*
X76559Y-44498D01*
X76822Y-44235D01*
X76822Y-44372D01*
X76627Y-44566D01*
X76890Y-44830D01*
X76962Y-44799D01*
X76999Y-44717D01*
X77020Y-44628D01*
X77023Y-44537D01*
X77023Y-47991D01*
X76996Y-48031D01*
X76971Y-48090D01*
X76958Y-48152D01*
X76957Y-48216D01*
X76968Y-48279D01*
X76992Y-48338D01*
X77027Y-48392D01*
X77071Y-48438D01*
X77123Y-48474D01*
X77182Y-48500D01*
X77215Y-48507D01*
X77360Y-48844D01*
X77351Y-48858D01*
X77325Y-48916D01*
X77312Y-48979D01*
X77311Y-49043D01*
X77323Y-49105D01*
X77346Y-49165D01*
X77381Y-49218D01*
X77425Y-49264D01*
X77478Y-49301D01*
X77536Y-49326D01*
X77599Y-49340D01*
X77662Y-49341D01*
X77725Y-49330D01*
X77785Y-49307D01*
X77839Y-49273D01*
X77885Y-49229D01*
X77922Y-49177D01*
X77948Y-49119D01*
X77962Y-49056D01*
X77963Y-48983D01*
X77963Y-53020D01*
X76822Y-53020D01*
X76822Y-44898D01*
X76559Y-44635D01*
X76490Y-44703D01*
X76490Y-44566D01*
X76227Y-44303D01*
X76155Y-44333D01*
X76118Y-44416D01*
X76097Y-44505D01*
X76094Y-44595D01*
X76108Y-44685D01*
X76140Y-44770D01*
X76155Y-44799D01*
X76227Y-44830D01*
X76490Y-44566D01*
X76490Y-44703D01*
X76295Y-44898D01*
X76326Y-44970D01*
X76408Y-45007D01*
X76497Y-45028D01*
X76588Y-45031D01*
X76677Y-45017D01*
X76762Y-44985D01*
X76792Y-44970D01*
X76822Y-44898D01*
X76822Y-53020D01*
X76427Y-53020D01*
X76427Y-51631D01*
X76428Y-51631D01*
X76465Y-51578D01*
X76491Y-51520D01*
X76505Y-51458D01*
X76506Y-51385D01*
X76494Y-51322D01*
X76469Y-51263D01*
X76434Y-51210D01*
X76427Y-51203D01*
X76427Y-47852D01*
X76428Y-47851D01*
X76465Y-47799D01*
X76491Y-47741D01*
X76505Y-47678D01*
X76506Y-47605D01*
X76494Y-47543D01*
X76469Y-47484D01*
X76434Y-47431D01*
X76389Y-47385D01*
X76336Y-47350D01*
X76277Y-47325D01*
X76215Y-47312D01*
X76151Y-47311D01*
X76088Y-47323D01*
X76032Y-47346D01*
X76032Y-43109D01*
X75559Y-42635D01*
X75490Y-42703D01*
X75490Y-42566D01*
X75016Y-42092D01*
X74915Y-42158D01*
X74848Y-42291D01*
X74808Y-42435D01*
X74796Y-42583D01*
X74814Y-42731D01*
X74860Y-42872D01*
X74915Y-42974D01*
X75016Y-43040D01*
X75490Y-42566D01*
X75490Y-42703D01*
X75085Y-43109D01*
X75151Y-43210D01*
X75283Y-43277D01*
X75427Y-43317D01*
X75575Y-43329D01*
X75723Y-43311D01*
X75864Y-43265D01*
X75967Y-43210D01*
X76032Y-43109D01*
X76032Y-47346D01*
X76029Y-47347D01*
X75976Y-47382D01*
X75930Y-47427D01*
X75894Y-47480D01*
X75869Y-47538D01*
X75855Y-47601D01*
X75855Y-47665D01*
X75866Y-47727D01*
X75890Y-47787D01*
X75924Y-47841D01*
X75934Y-47850D01*
X75934Y-51203D01*
X75930Y-51207D01*
X75894Y-51259D01*
X75869Y-51318D01*
X75855Y-51380D01*
X75855Y-51444D01*
X75866Y-51507D01*
X75890Y-51566D01*
X75924Y-51620D01*
X75934Y-51630D01*
X75934Y-53053D01*
X75930Y-53057D01*
X75894Y-53110D01*
X75869Y-53168D01*
X75855Y-53231D01*
X75855Y-53295D01*
X75866Y-53357D01*
X75890Y-53417D01*
X75924Y-53470D01*
X75946Y-53493D01*
X75771Y-53493D01*
X74420Y-52141D01*
X74420Y-41818D01*
X74407Y-41755D01*
X74383Y-41696D01*
X74348Y-41643D01*
X74303Y-41598D01*
X74282Y-41584D01*
X74282Y-41250D01*
X74295Y-41242D01*
X74342Y-41198D01*
X74378Y-41145D01*
X74404Y-41087D01*
X74419Y-41025D01*
X74420Y-40952D01*
X74407Y-40889D01*
X74383Y-40830D01*
X74348Y-40777D01*
X74303Y-40732D01*
X74250Y-40696D01*
X74191Y-40671D01*
X74128Y-40658D01*
X74064Y-40658D01*
X74002Y-40670D01*
X73942Y-40694D01*
X73889Y-40729D01*
X73878Y-40740D01*
X73869Y-40732D01*
X73817Y-40696D01*
X73758Y-40671D01*
X73695Y-40658D01*
X73631Y-40658D01*
X73569Y-40670D01*
X73509Y-40694D01*
X73456Y-40729D01*
X73445Y-40740D01*
X73436Y-40732D01*
X73383Y-40696D01*
X73325Y-40671D01*
X73262Y-40658D01*
X73198Y-40658D01*
X73135Y-40670D01*
X73076Y-40694D01*
X73023Y-40729D01*
X73011Y-40740D01*
X73003Y-40732D01*
X72950Y-40696D01*
X72892Y-40671D01*
X72829Y-40658D01*
X72765Y-40658D01*
X72702Y-40670D01*
X72643Y-40694D01*
X72590Y-40729D01*
X72578Y-40740D01*
X72570Y-40732D01*
X72517Y-40696D01*
X72458Y-40671D01*
X72396Y-40658D01*
X72332Y-40658D01*
X72269Y-40670D01*
X72210Y-40694D01*
X72157Y-40729D01*
X72111Y-40773D01*
X72075Y-40826D01*
X72050Y-40885D01*
X72037Y-40947D01*
X72036Y-41011D01*
X72047Y-41074D01*
X72071Y-41133D01*
X72105Y-41187D01*
X72150Y-41233D01*
X72174Y-41250D01*
X72174Y-44851D01*
X72157Y-44863D01*
X72111Y-44907D01*
X72075Y-44960D01*
X72050Y-45019D01*
X72037Y-45081D01*
X72036Y-45145D01*
X72047Y-45208D01*
X72071Y-45267D01*
X72105Y-45321D01*
X72150Y-45367D01*
X72202Y-45403D01*
X72261Y-45429D01*
X72323Y-45442D01*
X72387Y-45444D01*
X72450Y-45433D01*
X72509Y-45410D01*
X72563Y-45375D01*
X72609Y-45331D01*
X72646Y-45279D01*
X72672Y-45221D01*
X72686Y-45159D01*
X72687Y-45086D01*
X72675Y-45023D01*
X72651Y-44964D01*
X72615Y-44911D01*
X72570Y-44866D01*
X72550Y-44852D01*
X72550Y-44545D01*
X72583Y-44579D01*
X72635Y-44616D01*
X72694Y-44641D01*
X72756Y-44655D01*
X72820Y-44656D01*
X72883Y-44645D01*
X72942Y-44622D01*
X72996Y-44588D01*
X73042Y-44544D01*
X73079Y-44492D01*
X73105Y-44433D01*
X73119Y-44371D01*
X73120Y-44298D01*
X73108Y-44236D01*
X73084Y-44177D01*
X73048Y-44123D01*
X73003Y-44078D01*
X72983Y-44064D01*
X72983Y-43758D01*
X73016Y-43792D01*
X73068Y-43828D01*
X73127Y-43854D01*
X73189Y-43868D01*
X73253Y-43869D01*
X73316Y-43858D01*
X73375Y-43835D01*
X73429Y-43801D01*
X73476Y-43757D01*
X73512Y-43704D01*
X73538Y-43646D01*
X73552Y-43584D01*
X73553Y-43511D01*
X73541Y-43448D01*
X73517Y-43389D01*
X73481Y-43336D01*
X73436Y-43291D01*
X73416Y-43277D01*
X73416Y-42931D01*
X73449Y-42965D01*
X73501Y-43002D01*
X73560Y-43027D01*
X73622Y-43041D01*
X73686Y-43042D01*
X73749Y-43031D01*
X73808Y-43008D01*
X73862Y-42974D01*
X73909Y-42930D01*
X73945Y-42878D01*
X73971Y-42819D01*
X73986Y-42757D01*
X73987Y-42684D01*
X73974Y-42621D01*
X73950Y-42562D01*
X73914Y-42509D01*
X73869Y-42464D01*
X73849Y-42450D01*
X73849Y-42065D01*
X73882Y-42099D01*
X73934Y-42135D01*
X73993Y-42161D01*
X74055Y-42175D01*
X74119Y-42176D01*
X74182Y-42165D01*
X74242Y-42142D01*
X74295Y-42108D01*
X74342Y-42064D01*
X74378Y-42011D01*
X74404Y-41953D01*
X74419Y-41891D01*
X74420Y-41818D01*
X74420Y-52141D01*
X73671Y-51393D01*
X73672Y-51385D01*
X73659Y-51322D01*
X73635Y-51263D01*
X73599Y-51210D01*
X73593Y-51203D01*
X73593Y-46789D01*
X73594Y-46788D01*
X73630Y-46736D01*
X73656Y-46678D01*
X73671Y-46615D01*
X73672Y-46542D01*
X73659Y-46480D01*
X73635Y-46421D01*
X73599Y-46368D01*
X73555Y-46322D01*
X73502Y-46287D01*
X73443Y-46262D01*
X73380Y-46249D01*
X73316Y-46248D01*
X73254Y-46260D01*
X73194Y-46284D01*
X73141Y-46319D01*
X73133Y-46327D01*
X68947Y-46327D01*
X68947Y-44613D01*
X68935Y-44551D01*
X68910Y-44492D01*
X68875Y-44438D01*
X68830Y-44393D01*
X68777Y-44357D01*
X68718Y-44333D01*
X68656Y-44320D01*
X68592Y-44319D01*
X68529Y-44331D01*
X68470Y-44355D01*
X68417Y-44390D01*
X68371Y-44435D01*
X68356Y-44457D01*
X66683Y-44457D01*
X66670Y-44438D01*
X66625Y-44393D01*
X66572Y-44357D01*
X66514Y-44333D01*
X66451Y-44320D01*
X66387Y-44319D01*
X66324Y-44331D01*
X66265Y-44355D01*
X66212Y-44390D01*
X66166Y-44435D01*
X66130Y-44488D01*
X66105Y-44546D01*
X66092Y-44609D01*
X66091Y-44673D01*
X66102Y-44735D01*
X66126Y-44795D01*
X66160Y-44848D01*
X66205Y-44894D01*
X66257Y-44931D01*
X66316Y-44956D01*
X66378Y-44970D01*
X66442Y-44971D01*
X66505Y-44960D01*
X66564Y-44937D01*
X66618Y-44903D01*
X66664Y-44859D01*
X66683Y-44833D01*
X68355Y-44833D01*
X68365Y-44848D01*
X68410Y-44894D01*
X68462Y-44931D01*
X68520Y-44956D01*
X68583Y-44970D01*
X68647Y-44971D01*
X68710Y-44960D01*
X68769Y-44937D01*
X68823Y-44903D01*
X68869Y-44859D01*
X68906Y-44807D01*
X68932Y-44748D01*
X68946Y-44686D01*
X68947Y-44613D01*
X68947Y-46327D01*
X67812Y-46327D01*
X67806Y-46322D01*
X67754Y-46287D01*
X67695Y-46262D01*
X67632Y-46249D01*
X67568Y-46248D01*
X67506Y-46260D01*
X67446Y-46284D01*
X67393Y-46319D01*
X67347Y-46364D01*
X67311Y-46417D01*
X67286Y-46475D01*
X67273Y-46538D01*
X67272Y-46602D01*
X67283Y-46664D01*
X67307Y-46724D01*
X67342Y-46778D01*
X67351Y-46787D01*
X67351Y-51682D01*
X67136Y-51682D01*
X67136Y-48472D01*
X67124Y-48409D01*
X67099Y-48350D01*
X67064Y-48297D01*
X67019Y-48251D01*
X66966Y-48216D01*
X66907Y-48191D01*
X66845Y-48178D01*
X66781Y-48178D01*
X66765Y-48181D01*
X66500Y-47899D01*
X66505Y-47875D01*
X66506Y-47802D01*
X66494Y-47740D01*
X66469Y-47681D01*
X66434Y-47627D01*
X66389Y-47582D01*
X66336Y-47546D01*
X66277Y-47522D01*
X66215Y-47509D01*
X66151Y-47508D01*
X66088Y-47520D01*
X66029Y-47544D01*
X65976Y-47579D01*
X65930Y-47624D01*
X65894Y-47677D01*
X65869Y-47735D01*
X65855Y-47798D01*
X65855Y-47862D01*
X65866Y-47924D01*
X65890Y-47984D01*
X65924Y-48037D01*
X65969Y-48083D01*
X66021Y-48120D01*
X66080Y-48145D01*
X66142Y-48159D01*
X66206Y-48160D01*
X66227Y-48157D01*
X66492Y-48438D01*
X66485Y-48467D01*
X66485Y-48531D01*
X66496Y-48594D01*
X66520Y-48653D01*
X66554Y-48707D01*
X66598Y-48753D01*
X66651Y-48789D01*
X66709Y-48815D01*
X66772Y-48828D01*
X66836Y-48830D01*
X66899Y-48819D01*
X66958Y-48795D01*
X67012Y-48761D01*
X67058Y-48717D01*
X67095Y-48665D01*
X67121Y-48607D01*
X67135Y-48544D01*
X67136Y-48472D01*
X67136Y-51682D01*
X67086Y-51682D01*
X66243Y-51682D01*
X65994Y-51433D01*
X65994Y-51277D01*
X65995Y-51276D01*
X66032Y-51224D01*
X66058Y-51166D01*
X66072Y-51103D01*
X66073Y-51031D01*
X66061Y-50968D01*
X66036Y-50909D01*
X66001Y-50856D01*
X65956Y-50810D01*
X65903Y-50775D01*
X65844Y-50750D01*
X65782Y-50737D01*
X65718Y-50737D01*
X65655Y-50749D01*
X65596Y-50773D01*
X65543Y-50808D01*
X65497Y-50852D01*
X65461Y-50905D01*
X65436Y-50964D01*
X65422Y-51026D01*
X65422Y-51090D01*
X65433Y-51153D01*
X65457Y-51212D01*
X65491Y-51266D01*
X65501Y-51276D01*
X65501Y-51535D01*
X65503Y-51558D01*
X65505Y-51580D01*
X65505Y-51582D01*
X65505Y-51583D01*
X65512Y-51605D01*
X65518Y-51627D01*
X65519Y-51628D01*
X65519Y-51629D01*
X65530Y-51649D01*
X65541Y-51669D01*
X65541Y-51670D01*
X65542Y-51672D01*
X65556Y-51689D01*
X65571Y-51707D01*
X65572Y-51709D01*
X65572Y-51709D01*
X65572Y-51709D01*
X65573Y-51709D01*
X65967Y-52103D01*
X65984Y-52118D01*
X66002Y-52132D01*
X66003Y-52133D01*
X66004Y-52134D01*
X66024Y-52145D01*
X66044Y-52156D01*
X66045Y-52156D01*
X66046Y-52157D01*
X66068Y-52163D01*
X66090Y-52170D01*
X66091Y-52170D01*
X66092Y-52171D01*
X66115Y-52173D01*
X66138Y-52175D01*
X66140Y-52175D01*
X66140Y-52175D01*
X66140Y-52175D01*
X66141Y-52175D01*
X67086Y-52175D01*
X67351Y-52175D01*
X67351Y-52559D01*
X67353Y-52580D01*
X67355Y-52601D01*
X67356Y-52604D01*
X67356Y-52607D01*
X67362Y-52627D01*
X67368Y-52647D01*
X67369Y-52650D01*
X67370Y-52653D01*
X67380Y-52671D01*
X67389Y-52690D01*
X67391Y-52693D01*
X67392Y-52695D01*
X67406Y-52712D01*
X67419Y-52728D01*
X67421Y-52730D01*
X67423Y-52732D01*
X67439Y-52746D01*
X67455Y-52760D01*
X67458Y-52762D01*
X67912Y-53074D01*
X67913Y-53082D01*
X67937Y-53141D01*
X67971Y-53195D01*
X68016Y-53241D01*
X68068Y-53277D01*
X68127Y-53303D01*
X68189Y-53316D01*
X68253Y-53318D01*
X68316Y-53307D01*
X68375Y-53284D01*
X68429Y-53249D01*
X68441Y-53238D01*
X71911Y-53238D01*
X71913Y-53241D01*
X71966Y-53277D01*
X72024Y-53303D01*
X72087Y-53316D01*
X72151Y-53318D01*
X72213Y-53307D01*
X72273Y-53284D01*
X72327Y-53249D01*
X72373Y-53205D01*
X72410Y-53153D01*
X72436Y-53095D01*
X72450Y-53033D01*
X72451Y-52960D01*
X72439Y-52897D01*
X72414Y-52838D01*
X72379Y-52785D01*
X72334Y-52740D01*
X72281Y-52704D01*
X72222Y-52679D01*
X72160Y-52666D01*
X72096Y-52666D01*
X72033Y-52678D01*
X71974Y-52702D01*
X71920Y-52737D01*
X71912Y-52745D01*
X68442Y-52745D01*
X68436Y-52740D01*
X68383Y-52704D01*
X68325Y-52679D01*
X68262Y-52666D01*
X68198Y-52666D01*
X68192Y-52667D01*
X67845Y-52429D01*
X67845Y-52143D01*
X67846Y-52142D01*
X67882Y-52090D01*
X67908Y-52032D01*
X67923Y-51970D01*
X67924Y-51897D01*
X67911Y-51834D01*
X67887Y-51775D01*
X67851Y-51722D01*
X67845Y-51715D01*
X67845Y-46821D01*
X73099Y-46821D01*
X73099Y-51203D01*
X73095Y-51207D01*
X73059Y-51259D01*
X73034Y-51318D01*
X73021Y-51380D01*
X73020Y-51444D01*
X73031Y-51507D01*
X73055Y-51566D01*
X73090Y-51620D01*
X73134Y-51666D01*
X73186Y-51702D01*
X73245Y-51728D01*
X73307Y-51742D01*
X73322Y-51742D01*
X75494Y-53914D01*
X75512Y-53929D01*
X75529Y-53943D01*
X75530Y-53944D01*
X75531Y-53945D01*
X75552Y-53956D01*
X75572Y-53967D01*
X75573Y-53967D01*
X75574Y-53968D01*
X75596Y-53974D01*
X75617Y-53981D01*
X75619Y-53981D01*
X75620Y-53982D01*
X75643Y-53984D01*
X75665Y-53986D01*
X75668Y-53987D01*
X75668Y-53987D01*
X75668Y-53987D01*
X75669Y-53987D01*
X79510Y-53987D01*
X79512Y-53989D01*
X79564Y-54025D01*
X79623Y-54051D01*
X79685Y-54065D01*
X79749Y-54066D01*
X79812Y-54055D01*
X79871Y-54032D01*
X79925Y-53997D01*
X79937Y-53987D01*
X83144Y-53987D01*
X86846Y-56838D01*
X86850Y-56861D01*
X86874Y-56921D01*
X86908Y-56974D01*
X86953Y-57020D01*
X87005Y-57057D01*
X87064Y-57082D01*
X87126Y-57096D01*
X87190Y-57097D01*
X87253Y-57086D01*
X87312Y-57063D01*
X87366Y-57029D01*
X87413Y-56985D01*
X87449Y-56933D01*
X87475Y-56874D01*
X87489Y-56812D01*
X87490Y-56739D01*
X87478Y-56677D01*
X87454Y-56618D01*
X87418Y-56564D01*
X87373Y-56519D01*
X87331Y-56490D01*
X87331Y-49889D01*
X87318Y-49827D01*
X87294Y-49768D01*
X87259Y-49715D01*
X87215Y-49670D01*
X87162Y-49635D01*
X87103Y-49610D01*
X87041Y-49598D01*
X86978Y-49597D01*
X86916Y-49609D01*
X86857Y-49633D01*
X86804Y-49667D01*
X86758Y-49712D01*
X86723Y-49764D01*
X86698Y-49822D01*
X86684Y-49885D01*
X86684Y-49948D01*
X86695Y-50010D01*
X86718Y-50069D01*
X86753Y-50123D01*
X86797Y-50168D01*
X86849Y-50204D01*
X86907Y-50230D01*
X86969Y-50243D01*
X87032Y-50245D01*
X87095Y-50234D01*
X87154Y-50211D01*
X87207Y-50177D01*
X87253Y-50133D01*
X87290Y-50081D01*
X87316Y-50023D01*
X87330Y-49961D01*
X87331Y-49889D01*
X87331Y-56490D01*
X87320Y-56483D01*
X87262Y-56459D01*
X87199Y-56446D01*
X87146Y-56445D01*
X83595Y-53710D01*
X84826Y-52404D01*
X84855Y-52366D01*
X84877Y-52322D01*
X84883Y-52301D01*
X84901Y-52329D01*
X84945Y-52375D01*
X84997Y-52411D01*
X85056Y-52437D01*
X85118Y-52450D01*
X85182Y-52452D01*
X85186Y-52451D01*
X85185Y-52468D01*
X85197Y-52531D01*
X85220Y-52590D01*
X85255Y-52644D01*
X85299Y-52690D01*
X85352Y-52726D01*
X85410Y-52752D01*
X85473Y-52765D01*
X85536Y-52767D01*
X85599Y-52756D01*
X85659Y-52732D01*
X85713Y-52698D01*
X85759Y-52654D01*
X85796Y-52602D01*
X85822Y-52544D01*
X85836Y-52481D01*
X85837Y-52409D01*
X85825Y-52346D01*
X85800Y-52287D01*
X85765Y-52234D01*
X85720Y-52188D01*
X85699Y-52174D01*
X85699Y-49684D01*
X88288Y-47131D01*
X88307Y-47135D01*
X88371Y-47137D01*
X88434Y-47126D01*
X88493Y-47103D01*
X88547Y-47068D01*
X88594Y-47024D01*
X88630Y-46972D01*
X88656Y-46914D01*
X88671Y-46852D01*
X88672Y-46779D01*
X88672Y-60481D01*
X67103Y-60481D01*
X67103Y-59063D01*
X67079Y-58800D01*
X67004Y-58546D01*
X66881Y-58311D01*
X66872Y-58297D01*
X66710Y-58161D01*
X66642Y-58229D01*
X66642Y-58092D01*
X66505Y-57930D01*
X66272Y-57804D01*
X66019Y-57726D01*
X65756Y-57699D01*
X65492Y-57723D01*
X65239Y-57798D01*
X65004Y-57921D01*
X64990Y-57930D01*
X64854Y-58092D01*
X65748Y-58986D01*
X66642Y-58092D01*
X66642Y-58229D01*
X65816Y-59055D01*
X66710Y-59949D01*
X66872Y-59812D01*
X66998Y-59579D01*
X67076Y-59326D01*
X67103Y-59063D01*
X67103Y-60481D01*
X66642Y-60481D01*
X66642Y-60017D01*
X65748Y-59123D01*
X65679Y-59192D01*
X65679Y-59055D01*
X64785Y-58161D01*
X64623Y-58297D01*
X64497Y-58530D01*
X64419Y-58783D01*
X64392Y-59046D01*
X64416Y-59310D01*
X64491Y-59563D01*
X64614Y-59798D01*
X64623Y-59812D01*
X64785Y-59949D01*
X65679Y-59055D01*
X65679Y-59192D01*
X64854Y-60017D01*
X64990Y-60179D01*
X65223Y-60305D01*
X65476Y-60383D01*
X65739Y-60410D01*
X66003Y-60386D01*
X66256Y-60311D01*
X66491Y-60188D01*
X66505Y-60179D01*
X66642Y-60017D01*
X66642Y-60481D01*
X64321Y-60481D01*
X64321Y-54777D01*
X65058Y-56140D01*
X65063Y-56148D01*
X65069Y-56158D01*
X65079Y-56171D01*
X65085Y-56180D01*
X65091Y-56186D01*
X65099Y-56196D01*
X65111Y-56206D01*
X65119Y-56214D01*
X65126Y-56219D01*
X65136Y-56227D01*
X65150Y-56234D01*
X65159Y-56241D01*
X65168Y-56244D01*
X65178Y-56250D01*
X65193Y-56255D01*
X65204Y-56259D01*
X65213Y-56261D01*
X65224Y-56265D01*
X65239Y-56266D01*
X65251Y-56269D01*
X65260Y-56269D01*
X65272Y-56270D01*
X65275Y-56270D01*
X76905Y-56270D01*
X77824Y-57188D01*
X77824Y-58841D01*
X77820Y-58844D01*
X77784Y-58897D01*
X77759Y-58956D01*
X77745Y-59018D01*
X77744Y-59082D01*
X77756Y-59145D01*
X77779Y-59204D01*
X77814Y-59258D01*
X77858Y-59304D01*
X77911Y-59340D01*
X77969Y-59366D01*
X78032Y-59379D01*
X78095Y-59381D01*
X78158Y-59370D01*
X78218Y-59347D01*
X78272Y-59312D01*
X78283Y-59301D01*
X81439Y-59301D01*
X81441Y-59304D01*
X81493Y-59340D01*
X81552Y-59366D01*
X81614Y-59379D01*
X81678Y-59381D01*
X81741Y-59370D01*
X81801Y-59347D01*
X81854Y-59312D01*
X81901Y-59268D01*
X81938Y-59216D01*
X81963Y-59158D01*
X81978Y-59096D01*
X81979Y-59023D01*
X81966Y-58960D01*
X81942Y-58901D01*
X81907Y-58848D01*
X81862Y-58803D01*
X81809Y-58767D01*
X81750Y-58742D01*
X81687Y-58729D01*
X81623Y-58729D01*
X81561Y-58741D01*
X81501Y-58765D01*
X81448Y-58800D01*
X81440Y-58808D01*
X78317Y-58808D01*
X78317Y-57086D01*
X78315Y-57063D01*
X78313Y-57041D01*
X78313Y-57039D01*
X78313Y-57038D01*
X78306Y-57016D01*
X78300Y-56994D01*
X78299Y-56993D01*
X78299Y-56992D01*
X78288Y-56972D01*
X78277Y-56952D01*
X78277Y-56951D01*
X78276Y-56950D01*
X78262Y-56932D01*
X78247Y-56914D01*
X78246Y-56912D01*
X78246Y-56912D01*
X78245Y-56912D01*
X78245Y-56912D01*
X77182Y-55849D01*
X77164Y-55834D01*
X77147Y-55819D01*
X77146Y-55819D01*
X77145Y-55818D01*
X77125Y-55807D01*
X77105Y-55796D01*
X77103Y-55796D01*
X77102Y-55795D01*
X77080Y-55789D01*
X77059Y-55782D01*
X77057Y-55782D01*
X77056Y-55781D01*
X77033Y-55779D01*
X77011Y-55776D01*
X77008Y-55776D01*
X77008Y-55776D01*
X77008Y-55776D01*
X77007Y-55776D01*
X65422Y-55776D01*
X64735Y-54504D01*
X64735Y-53031D01*
X64735Y-52368D01*
X64738Y-52368D01*
X65289Y-52368D01*
X65318Y-52362D01*
X65345Y-52351D01*
X65369Y-52335D01*
X65389Y-52314D01*
X65406Y-52290D01*
X65417Y-52263D01*
X65423Y-52235D01*
X65423Y-52206D01*
X65423Y-51655D01*
X65417Y-51626D01*
X65406Y-51599D01*
X65390Y-51575D01*
X65370Y-51554D01*
X65345Y-51538D01*
X65319Y-51527D01*
X65290Y-51521D01*
X65261Y-51521D01*
X64735Y-51521D01*
X64735Y-51276D01*
X64792Y-51316D01*
X64868Y-51349D01*
X64949Y-51367D01*
X65032Y-51369D01*
X65114Y-51354D01*
X65191Y-51324D01*
X65261Y-51280D01*
X65322Y-51222D01*
X65369Y-51155D01*
X65403Y-51079D01*
X65422Y-50998D01*
X65423Y-50903D01*
X65407Y-50821D01*
X65404Y-50813D01*
X66316Y-49926D01*
X66339Y-49931D01*
X66403Y-49932D01*
X66465Y-49921D01*
X66525Y-49898D01*
X66579Y-49864D01*
X66625Y-49820D01*
X66662Y-49767D01*
X66688Y-49709D01*
X66702Y-49647D01*
X66703Y-49574D01*
X66691Y-49511D01*
X66666Y-49452D01*
X66631Y-49399D01*
X66586Y-49354D01*
X66533Y-49318D01*
X66474Y-49293D01*
X66412Y-49280D01*
X66348Y-49280D01*
X66285Y-49292D01*
X66226Y-49316D01*
X66172Y-49351D01*
X66127Y-49396D01*
X66091Y-49448D01*
X66066Y-49507D01*
X66052Y-49569D01*
X66051Y-49633D01*
X66056Y-49655D01*
X65444Y-50250D01*
X65444Y-46714D01*
X65430Y-46628D01*
X65399Y-46547D01*
X65386Y-46522D01*
X65317Y-46494D01*
X65249Y-46563D01*
X65068Y-46744D01*
X65317Y-46993D01*
X65386Y-46965D01*
X65422Y-46885D01*
X65442Y-46801D01*
X65444Y-46714D01*
X65444Y-50250D01*
X65444Y-50250D01*
X65444Y-49915D01*
X65429Y-49829D01*
X65399Y-49747D01*
X65386Y-49723D01*
X65317Y-49696D01*
X65248Y-49764D01*
X65068Y-49944D01*
X65317Y-50193D01*
X65386Y-50165D01*
X65422Y-50086D01*
X65441Y-50001D01*
X65444Y-49915D01*
X65444Y-50250D01*
X65248Y-50440D01*
X65141Y-50545D01*
X65125Y-50538D01*
X65044Y-50521D01*
X64961Y-50521D01*
X64879Y-50536D01*
X64802Y-50567D01*
X64735Y-50612D01*
X64735Y-50278D01*
X64751Y-50262D01*
X64779Y-50331D01*
X64858Y-50366D01*
X64942Y-50386D01*
X65029Y-50389D01*
X65115Y-50374D01*
X65196Y-50344D01*
X65220Y-50331D01*
X65248Y-50262D01*
X65000Y-50013D01*
X64994Y-50018D01*
X64925Y-49950D01*
X64931Y-49944D01*
X64925Y-49939D01*
X64994Y-49870D01*
X65000Y-49876D01*
X65248Y-49627D01*
X65220Y-49558D01*
X65141Y-49522D01*
X65057Y-49503D01*
X64970Y-49500D01*
X64884Y-49514D01*
X64803Y-49545D01*
X64779Y-49558D01*
X64751Y-49627D01*
X64735Y-49611D01*
X64735Y-49168D01*
X64738Y-49168D01*
X65290Y-49168D01*
X65318Y-49162D01*
X65345Y-49151D01*
X65369Y-49135D01*
X65390Y-49114D01*
X65406Y-49090D01*
X65417Y-49063D01*
X65423Y-49035D01*
X65424Y-49006D01*
X65423Y-48454D01*
X65418Y-48425D01*
X65407Y-48398D01*
X65391Y-48374D01*
X65370Y-48353D01*
X65346Y-48337D01*
X65319Y-48326D01*
X65291Y-48320D01*
X65261Y-48320D01*
X64735Y-48320D01*
X64735Y-48076D01*
X64792Y-48115D01*
X64868Y-48149D01*
X64949Y-48167D01*
X65032Y-48168D01*
X65114Y-48154D01*
X65192Y-48124D01*
X65262Y-48079D01*
X65322Y-48022D01*
X65370Y-47954D01*
X65404Y-47878D01*
X65422Y-47797D01*
X65423Y-47702D01*
X65407Y-47620D01*
X65376Y-47544D01*
X65330Y-47474D01*
X65271Y-47415D01*
X65249Y-47400D01*
X65202Y-47369D01*
X65125Y-47337D01*
X65044Y-47320D01*
X64961Y-47319D01*
X64879Y-47335D01*
X64802Y-47366D01*
X64735Y-47410D01*
X64735Y-47077D01*
X64750Y-47061D01*
X64778Y-47131D01*
X64858Y-47166D01*
X64942Y-47186D01*
X65029Y-47188D01*
X65115Y-47174D01*
X65197Y-47143D01*
X65221Y-47131D01*
X65249Y-47061D01*
X65000Y-46812D01*
X64994Y-46818D01*
X64925Y-46749D01*
X64931Y-46744D01*
X64925Y-46738D01*
X64994Y-46670D01*
X65000Y-46675D01*
X65249Y-46426D01*
X65221Y-46357D01*
X65141Y-46321D01*
X65057Y-46302D01*
X64970Y-46299D01*
X64884Y-46313D01*
X64802Y-46344D01*
X64778Y-46357D01*
X64750Y-46426D01*
X64735Y-46410D01*
X64735Y-46076D01*
X64792Y-46115D01*
X64868Y-46149D01*
X64949Y-46167D01*
X65032Y-46168D01*
X65114Y-46154D01*
X65192Y-46124D01*
X65262Y-46079D01*
X65322Y-46022D01*
X65370Y-45954D01*
X65404Y-45878D01*
X65422Y-45797D01*
X65423Y-45702D01*
X65407Y-45620D01*
X65376Y-45544D01*
X65330Y-45474D01*
X65271Y-45415D01*
X65202Y-45369D01*
X65125Y-45337D01*
X65044Y-45320D01*
X64961Y-45319D01*
X64879Y-45335D01*
X64802Y-45366D01*
X64735Y-45410D01*
X64735Y-44944D01*
X65850Y-43829D01*
X70157Y-43829D01*
X70166Y-43828D01*
X70174Y-43828D01*
X70189Y-43826D01*
X70205Y-43824D01*
X70213Y-43822D01*
X70222Y-43820D01*
X70236Y-43815D01*
X70251Y-43810D01*
X70259Y-43806D01*
X70267Y-43803D01*
X70280Y-43795D01*
X70294Y-43788D01*
X70300Y-43782D01*
X70308Y-43778D01*
X70319Y-43767D01*
X70331Y-43757D01*
X70336Y-43751D01*
X70343Y-43745D01*
X70345Y-43742D01*
X71015Y-42955D01*
X71026Y-42939D01*
X71030Y-42934D01*
X71032Y-42930D01*
X71042Y-42916D01*
X71050Y-42897D01*
X71053Y-42892D01*
X71055Y-42887D01*
X71062Y-42871D01*
X71066Y-42852D01*
X71068Y-42846D01*
X71068Y-42840D01*
X71072Y-42824D01*
X71072Y-42806D01*
X71073Y-42798D01*
X71073Y-42795D01*
X71073Y-42537D01*
X71074Y-42536D01*
X71111Y-42484D01*
X71137Y-42426D01*
X71151Y-42363D01*
X71152Y-42290D01*
X71139Y-42228D01*
X71118Y-42175D01*
X71309Y-42175D01*
X71309Y-42086D01*
X71313Y-42083D01*
X71324Y-42074D01*
X71324Y-42074D01*
X71325Y-42073D01*
X71333Y-42063D01*
X71342Y-42052D01*
X71343Y-42051D01*
X71343Y-42051D01*
X71350Y-42039D01*
X71356Y-42026D01*
X71357Y-42026D01*
X71357Y-42026D01*
X71361Y-42012D01*
X71365Y-41999D01*
X71365Y-41998D01*
X71365Y-41998D01*
X71367Y-41984D01*
X71368Y-41970D01*
X71368Y-41969D01*
X71368Y-41969D01*
X71368Y-41969D01*
X71368Y-41968D01*
X71368Y-39912D01*
X95520Y-39912D01*
X95520Y-60481D01*
X95520Y-60481D01*
G37*
G54D25*
X95520Y-60481D02*
X95450Y-60481D01*
X95450Y-59063D01*
X95450Y-41346D01*
X95425Y-41083D01*
X95350Y-40829D01*
X95228Y-40595D01*
X95218Y-40581D01*
X95056Y-40444D01*
X94988Y-40513D01*
X94988Y-40376D01*
X94851Y-40214D01*
X94618Y-40088D01*
X94365Y-40010D01*
X94102Y-39982D01*
X93839Y-40007D01*
X93585Y-40082D01*
X93351Y-40204D01*
X93337Y-40214D01*
X93200Y-40376D01*
X94094Y-41270D01*
X94988Y-40376D01*
X94988Y-40513D01*
X94162Y-41338D01*
X95056Y-42232D01*
X95218Y-42095D01*
X95344Y-41862D01*
X95422Y-41610D01*
X95450Y-41346D01*
X95450Y-59063D01*
X95425Y-58800D01*
X95350Y-58546D01*
X95228Y-58311D01*
X95218Y-58297D01*
X95056Y-58161D01*
X94988Y-58229D01*
X94988Y-58092D01*
X94988Y-42301D01*
X94094Y-41407D01*
X94026Y-41475D01*
X94026Y-41338D01*
X93132Y-40444D01*
X92969Y-40581D01*
X92844Y-40814D01*
X92766Y-41067D01*
X92738Y-41330D01*
X92763Y-41593D01*
X92837Y-41847D01*
X92960Y-42081D01*
X92969Y-42095D01*
X93132Y-42232D01*
X94026Y-41338D01*
X94026Y-41475D01*
X93200Y-42301D01*
X93337Y-42463D01*
X93570Y-42588D01*
X93822Y-42666D01*
X94086Y-42694D01*
X94349Y-42670D01*
X94603Y-42595D01*
X94837Y-42472D01*
X94851Y-42463D01*
X94988Y-42301D01*
X94988Y-58092D01*
X94851Y-57930D01*
X94618Y-57804D01*
X94365Y-57726D01*
X94291Y-57719D01*
X94291Y-55877D01*
X94291Y-53515D01*
X94291Y-51152D01*
X94276Y-51059D01*
X94244Y-50970D01*
X94226Y-50936D01*
X94152Y-50903D01*
X94084Y-50972D01*
X94084Y-50835D01*
X94051Y-50761D01*
X93965Y-50722D01*
X93873Y-50700D01*
X93778Y-50696D01*
X93685Y-50711D01*
X93596Y-50743D01*
X93562Y-50761D01*
X93529Y-50835D01*
X93807Y-51112D01*
X94084Y-50835D01*
X94084Y-50972D01*
X93875Y-51181D01*
X94152Y-51458D01*
X94226Y-51425D01*
X94265Y-51339D01*
X94287Y-51247D01*
X94291Y-51152D01*
X94291Y-53515D01*
X94276Y-53421D01*
X94244Y-53332D01*
X94226Y-53298D01*
X94152Y-53265D01*
X94084Y-53334D01*
X94084Y-53197D01*
X94084Y-51526D01*
X93807Y-51249D01*
X93738Y-51318D01*
X93738Y-51181D01*
X93461Y-50903D01*
X93387Y-50936D01*
X93348Y-51022D01*
X93326Y-51114D01*
X93322Y-51209D01*
X93337Y-51302D01*
X93369Y-51391D01*
X93387Y-51425D01*
X93461Y-51458D01*
X93738Y-51181D01*
X93738Y-51318D01*
X93529Y-51526D01*
X93562Y-51600D01*
X93648Y-51639D01*
X93740Y-51661D01*
X93835Y-51665D01*
X93928Y-51650D01*
X94017Y-51618D01*
X94051Y-51600D01*
X94084Y-51526D01*
X94084Y-53197D01*
X94051Y-53124D01*
X93965Y-53084D01*
X93873Y-53062D01*
X93778Y-53058D01*
X93685Y-53073D01*
X93596Y-53106D01*
X93562Y-53124D01*
X93529Y-53197D01*
X93807Y-53474D01*
X94084Y-53197D01*
X94084Y-53334D01*
X93875Y-53543D01*
X94152Y-53820D01*
X94226Y-53788D01*
X94265Y-53701D01*
X94287Y-53609D01*
X94291Y-53515D01*
X94291Y-55877D01*
X94276Y-55783D01*
X94244Y-55694D01*
X94226Y-55660D01*
X94152Y-55628D01*
X94084Y-55696D01*
X94084Y-55559D01*
X94084Y-53889D01*
X93807Y-53611D01*
X93738Y-53680D01*
X93738Y-53543D01*
X93461Y-53265D01*
X93387Y-53298D01*
X93348Y-53384D01*
X93326Y-53476D01*
X93322Y-53571D01*
X93337Y-53665D01*
X93369Y-53754D01*
X93387Y-53788D01*
X93461Y-53820D01*
X93738Y-53543D01*
X93738Y-53680D01*
X93529Y-53889D01*
X93562Y-53962D01*
X93648Y-54002D01*
X93740Y-54024D01*
X93835Y-54027D01*
X93928Y-54013D01*
X94017Y-53980D01*
X94051Y-53962D01*
X94084Y-53889D01*
X94084Y-55559D01*
X94051Y-55486D01*
X93965Y-55446D01*
X93873Y-55424D01*
X93778Y-55420D01*
X93685Y-55435D01*
X93596Y-55468D01*
X93562Y-55486D01*
X93529Y-55559D01*
X93807Y-55837D01*
X94084Y-55559D01*
X94084Y-55696D01*
X93875Y-55905D01*
X94152Y-56182D01*
X94226Y-56150D01*
X94265Y-56064D01*
X94287Y-55972D01*
X94291Y-55877D01*
X94291Y-57719D01*
X94102Y-57699D01*
X94084Y-57701D01*
X94084Y-56251D01*
X93807Y-55973D01*
X93738Y-56042D01*
X93738Y-55905D01*
X93461Y-55628D01*
X93387Y-55660D01*
X93348Y-55746D01*
X93326Y-55839D01*
X93322Y-55933D01*
X93337Y-56027D01*
X93369Y-56116D01*
X93387Y-56150D01*
X93461Y-56182D01*
X93738Y-55905D01*
X93738Y-56042D01*
X93529Y-56251D01*
X93562Y-56324D01*
X93648Y-56364D01*
X93740Y-56386D01*
X93835Y-56390D01*
X93928Y-56375D01*
X94017Y-56342D01*
X94051Y-56324D01*
X94084Y-56251D01*
X94084Y-57701D01*
X93839Y-57723D01*
X93585Y-57798D01*
X93351Y-57921D01*
X93337Y-57930D01*
X93270Y-58009D01*
X93270Y-56206D01*
X93270Y-53844D01*
X93270Y-51482D01*
X93270Y-50851D01*
X93264Y-50823D01*
X93253Y-50796D01*
X93237Y-50771D01*
X93217Y-50751D01*
X93192Y-50734D01*
X93166Y-50723D01*
X93137Y-50717D01*
X93108Y-50717D01*
X92477Y-50717D01*
X92449Y-50723D01*
X92422Y-50734D01*
X92397Y-50750D01*
X92377Y-50771D01*
X92360Y-50795D01*
X92349Y-50822D01*
X92343Y-50850D01*
X92343Y-50879D01*
X92343Y-51510D01*
X92349Y-51539D01*
X92360Y-51566D01*
X92376Y-51590D01*
X92397Y-51610D01*
X92421Y-51627D01*
X92448Y-51638D01*
X92476Y-51644D01*
X92505Y-51644D01*
X93136Y-51644D01*
X93165Y-51638D01*
X93192Y-51627D01*
X93216Y-51611D01*
X93236Y-51591D01*
X93253Y-51566D01*
X93264Y-51540D01*
X93270Y-51511D01*
X93270Y-51482D01*
X93270Y-53844D01*
X93270Y-53213D01*
X93264Y-53185D01*
X93253Y-53158D01*
X93237Y-53134D01*
X93217Y-53113D01*
X93192Y-53097D01*
X93166Y-53085D01*
X93137Y-53080D01*
X93108Y-53079D01*
X92477Y-53079D01*
X92449Y-53085D01*
X92422Y-53096D01*
X92397Y-53112D01*
X92377Y-53133D01*
X92360Y-53157D01*
X92349Y-53184D01*
X92343Y-53212D01*
X92343Y-53241D01*
X92343Y-53872D01*
X92349Y-53901D01*
X92360Y-53928D01*
X92376Y-53952D01*
X92397Y-53973D01*
X92421Y-53989D01*
X92448Y-54000D01*
X92476Y-54006D01*
X92505Y-54006D01*
X93136Y-54006D01*
X93165Y-54001D01*
X93192Y-53989D01*
X93216Y-53973D01*
X93236Y-53953D01*
X93253Y-53929D01*
X93264Y-53902D01*
X93270Y-53873D01*
X93270Y-53844D01*
X93270Y-56206D01*
X93270Y-55575D01*
X93264Y-55547D01*
X93253Y-55520D01*
X93237Y-55496D01*
X93217Y-55475D01*
X93192Y-55459D01*
X93166Y-55448D01*
X93137Y-55442D01*
X93108Y-55442D01*
X92477Y-55442D01*
X92449Y-55447D01*
X92422Y-55458D01*
X92397Y-55474D01*
X92377Y-55495D01*
X92360Y-55519D01*
X92349Y-55546D01*
X92343Y-55574D01*
X92343Y-55604D01*
X92343Y-56235D01*
X92349Y-56263D01*
X92360Y-56290D01*
X92376Y-56314D01*
X92397Y-56335D01*
X92421Y-56351D01*
X92448Y-56362D01*
X92476Y-56368D01*
X92505Y-56369D01*
X93136Y-56368D01*
X93165Y-56363D01*
X93192Y-56352D01*
X93216Y-56336D01*
X93236Y-56315D01*
X93253Y-56291D01*
X93264Y-56264D01*
X93270Y-56236D01*
X93270Y-56206D01*
X93270Y-58009D01*
X93200Y-58092D01*
X94094Y-58986D01*
X94988Y-58092D01*
X94988Y-58229D01*
X94162Y-59055D01*
X95056Y-59949D01*
X95218Y-59812D01*
X95344Y-59579D01*
X95422Y-59326D01*
X95450Y-59063D01*
X95450Y-60481D01*
X94988Y-60481D01*
X94988Y-60017D01*
X94094Y-59123D01*
X94026Y-59192D01*
X94026Y-59055D01*
X93132Y-58161D01*
X92969Y-58297D01*
X92844Y-58530D01*
X92766Y-58783D01*
X92738Y-59046D01*
X92763Y-59310D01*
X92837Y-59563D01*
X92960Y-59798D01*
X92969Y-59812D01*
X93132Y-59949D01*
X94026Y-59055D01*
X94026Y-59192D01*
X93200Y-60017D01*
X93337Y-60179D01*
X93570Y-60305D01*
X93822Y-60383D01*
X94086Y-60410D01*
X94349Y-60386D01*
X94603Y-60311D01*
X94837Y-60188D01*
X94851Y-60179D01*
X94988Y-60017D01*
X94988Y-60481D01*
X92132Y-60481D01*
X92132Y-42550D01*
X92114Y-42402D01*
X92068Y-42261D01*
X92014Y-42158D01*
X91912Y-42092D01*
X91844Y-42161D01*
X91844Y-42024D01*
X91778Y-41922D01*
X91645Y-41855D01*
X91501Y-41816D01*
X91353Y-41804D01*
X91205Y-41822D01*
X91064Y-41868D01*
X90962Y-41922D01*
X90896Y-42024D01*
X91370Y-42498D01*
X91844Y-42024D01*
X91844Y-42161D01*
X91438Y-42566D01*
X91912Y-43040D01*
X92014Y-42974D01*
X92081Y-42842D01*
X92120Y-42698D01*
X92132Y-42550D01*
X92132Y-60481D01*
X91844Y-60481D01*
X91844Y-43109D01*
X91370Y-42635D01*
X91301Y-42703D01*
X91301Y-42566D01*
X90827Y-42092D01*
X90726Y-42158D01*
X90659Y-42291D01*
X90619Y-42435D01*
X90607Y-42583D01*
X90625Y-42731D01*
X90671Y-42872D01*
X90726Y-42974D01*
X90827Y-43040D01*
X91301Y-42566D01*
X91301Y-42703D01*
X90896Y-43109D01*
X90962Y-43210D01*
X91094Y-43277D01*
X91238Y-43317D01*
X91386Y-43329D01*
X91534Y-43311D01*
X91675Y-43265D01*
X91778Y-43210D01*
X91844Y-43109D01*
X91844Y-60481D01*
X89813Y-60481D01*
X89813Y-44848D01*
X89813Y-44257D01*
X89808Y-44228D01*
X89797Y-44201D01*
X89780Y-44177D01*
X89760Y-44156D01*
X89736Y-44140D01*
X89709Y-44129D01*
X89680Y-44123D01*
X89651Y-44123D01*
X89060Y-44123D01*
X89031Y-44128D01*
X89004Y-44139D01*
X88980Y-44156D01*
X88959Y-44176D01*
X88943Y-44200D01*
X88932Y-44227D01*
X88926Y-44256D01*
X88926Y-44285D01*
X88926Y-44876D01*
X88932Y-44905D01*
X88943Y-44932D01*
X88959Y-44956D01*
X88979Y-44977D01*
X89003Y-44993D01*
X89030Y-45004D01*
X89059Y-45010D01*
X89088Y-45010D01*
X89679Y-45010D01*
X89708Y-45004D01*
X89735Y-44993D01*
X89759Y-44977D01*
X89780Y-44957D01*
X89796Y-44933D01*
X89807Y-44906D01*
X89813Y-44877D01*
X89813Y-44848D01*
X89813Y-60481D01*
X88834Y-60481D01*
X88834Y-44537D01*
X88820Y-44448D01*
X88788Y-44363D01*
X88773Y-44333D01*
X88701Y-44303D01*
X88633Y-44372D01*
X88633Y-44235D01*
X88603Y-44163D01*
X88520Y-44126D01*
X88431Y-44105D01*
X88341Y-44102D01*
X88251Y-44116D01*
X88166Y-44148D01*
X88137Y-44163D01*
X88132Y-44175D01*
X88132Y-42550D01*
X88114Y-42402D01*
X88068Y-42261D01*
X88014Y-42158D01*
X87912Y-42092D01*
X87844Y-42161D01*
X87844Y-42024D01*
X87778Y-41922D01*
X87645Y-41855D01*
X87501Y-41816D01*
X87353Y-41804D01*
X87205Y-41822D01*
X87064Y-41868D01*
X86962Y-41922D01*
X86896Y-42024D01*
X87370Y-42498D01*
X87844Y-42024D01*
X87844Y-42161D01*
X87438Y-42566D01*
X87912Y-43040D01*
X88014Y-42974D01*
X88081Y-42842D01*
X88120Y-42698D01*
X88132Y-42550D01*
X88132Y-44175D01*
X88106Y-44235D01*
X88370Y-44498D01*
X88633Y-44235D01*
X88633Y-44372D01*
X88438Y-44566D01*
X88701Y-44830D01*
X88773Y-44799D01*
X88810Y-44717D01*
X88831Y-44628D01*
X88834Y-44537D01*
X88834Y-60481D01*
X88672Y-60481D01*
X88672Y-46779D01*
X88659Y-46716D01*
X88635Y-46657D01*
X88633Y-46654D01*
X88633Y-44898D01*
X88370Y-44635D01*
X88301Y-44703D01*
X88301Y-44566D01*
X88038Y-44303D01*
X87966Y-44333D01*
X87929Y-44416D01*
X87908Y-44505D01*
X87905Y-44595D01*
X87919Y-44685D01*
X87951Y-44770D01*
X87966Y-44799D01*
X88038Y-44830D01*
X88301Y-44566D01*
X88301Y-44703D01*
X88106Y-44898D01*
X88137Y-44970D01*
X88219Y-45007D01*
X88308Y-45028D01*
X88399Y-45031D01*
X88488Y-45017D01*
X88573Y-44985D01*
X88603Y-44970D01*
X88633Y-44898D01*
X88633Y-46654D01*
X88599Y-46604D01*
X88555Y-46558D01*
X88502Y-46523D01*
X88443Y-46498D01*
X88380Y-46485D01*
X88316Y-46485D01*
X88254Y-46497D01*
X88194Y-46521D01*
X88141Y-46556D01*
X88095Y-46600D01*
X88059Y-46653D01*
X88034Y-46712D01*
X88021Y-46774D01*
X88020Y-46838D01*
X88025Y-46864D01*
X87844Y-47042D01*
X87844Y-43109D01*
X87370Y-42635D01*
X87301Y-42703D01*
X87301Y-42566D01*
X86827Y-42092D01*
X86726Y-42158D01*
X86659Y-42291D01*
X86619Y-42435D01*
X86607Y-42583D01*
X86625Y-42731D01*
X86671Y-42872D01*
X86726Y-42974D01*
X86827Y-43040D01*
X87301Y-42566D01*
X87301Y-42703D01*
X86896Y-43109D01*
X86962Y-43210D01*
X87094Y-43277D01*
X87238Y-43317D01*
X87386Y-43329D01*
X87534Y-43311D01*
X87675Y-43265D01*
X87778Y-43210D01*
X87844Y-43109D01*
X87844Y-47042D01*
X85379Y-49472D01*
X85368Y-49486D01*
X85356Y-49500D01*
X85356Y-49500D01*
X85356Y-49500D01*
X85347Y-49516D01*
X85345Y-49521D01*
X85345Y-47195D01*
X85358Y-47186D01*
X85405Y-47142D01*
X85441Y-47090D01*
X85467Y-47032D01*
X85482Y-46970D01*
X85483Y-46897D01*
X85470Y-46834D01*
X85446Y-46775D01*
X85411Y-46722D01*
X85366Y-46677D01*
X85313Y-46641D01*
X85254Y-46616D01*
X85191Y-46603D01*
X85127Y-46603D01*
X85065Y-46615D01*
X85005Y-46639D01*
X84952Y-46674D01*
X84906Y-46718D01*
X84870Y-46771D01*
X84845Y-46830D01*
X84832Y-46892D01*
X84831Y-46956D01*
X84842Y-47019D01*
X84866Y-47078D01*
X84901Y-47132D01*
X84945Y-47178D01*
X84969Y-47195D01*
X84969Y-47676D01*
X84958Y-47621D01*
X84934Y-47562D01*
X84899Y-47509D01*
X84854Y-47464D01*
X84801Y-47428D01*
X84742Y-47404D01*
X84679Y-47391D01*
X84616Y-47390D01*
X84553Y-47402D01*
X84494Y-47426D01*
X84440Y-47461D01*
X84395Y-47506D01*
X84358Y-47558D01*
X84333Y-47617D01*
X84320Y-47680D01*
X84319Y-47743D01*
X84331Y-47806D01*
X84354Y-47866D01*
X84389Y-47919D01*
X84398Y-47929D01*
X84398Y-48943D01*
X84388Y-48939D01*
X84325Y-48926D01*
X84261Y-48926D01*
X84198Y-48938D01*
X84139Y-48962D01*
X84086Y-48996D01*
X84040Y-49041D01*
X84004Y-49094D01*
X83979Y-49153D01*
X83966Y-49215D01*
X83965Y-49279D01*
X83976Y-49342D01*
X84000Y-49401D01*
X84034Y-49455D01*
X84044Y-49465D01*
X84044Y-51905D01*
X82929Y-53020D01*
X80674Y-53020D01*
X81434Y-52261D01*
X81448Y-52243D01*
X81463Y-52226D01*
X81464Y-52224D01*
X81464Y-52223D01*
X81475Y-52203D01*
X81486Y-52183D01*
X81487Y-52182D01*
X81487Y-52181D01*
X81494Y-52159D01*
X81501Y-52137D01*
X81501Y-52136D01*
X81501Y-52135D01*
X81504Y-52112D01*
X81506Y-52090D01*
X81506Y-52087D01*
X81506Y-52087D01*
X81506Y-52087D01*
X81506Y-52086D01*
X81506Y-50844D01*
X81507Y-50843D01*
X81544Y-50791D01*
X81570Y-50733D01*
X81584Y-50670D01*
X81585Y-50597D01*
X81573Y-50535D01*
X81548Y-50476D01*
X81513Y-50423D01*
X81506Y-50416D01*
X81506Y-47691D01*
X81542Y-47640D01*
X81568Y-47582D01*
X81582Y-47521D01*
X81583Y-47448D01*
X81570Y-47386D01*
X81546Y-47327D01*
X81511Y-47274D01*
X81466Y-47229D01*
X81414Y-47194D01*
X81355Y-47169D01*
X81293Y-47157D01*
X81230Y-47156D01*
X81168Y-47168D01*
X81109Y-47192D01*
X81056Y-47227D01*
X81010Y-47271D01*
X80975Y-47323D01*
X80950Y-47382D01*
X80936Y-47444D01*
X80935Y-47507D01*
X80947Y-47569D01*
X80970Y-47628D01*
X81005Y-47682D01*
X81012Y-47690D01*
X81012Y-50415D01*
X81009Y-50419D01*
X80973Y-50472D01*
X80947Y-50530D01*
X80934Y-50593D01*
X80933Y-50657D01*
X80945Y-50720D01*
X80968Y-50779D01*
X81003Y-50833D01*
X81012Y-50843D01*
X81012Y-51984D01*
X80321Y-52676D01*
X80321Y-42550D01*
X80303Y-42402D01*
X80257Y-42261D01*
X80203Y-42158D01*
X80101Y-42092D01*
X80032Y-42161D01*
X80032Y-42024D01*
X79967Y-41922D01*
X79834Y-41855D01*
X79690Y-41816D01*
X79542Y-41804D01*
X79394Y-41822D01*
X79253Y-41868D01*
X79151Y-41922D01*
X79085Y-42024D01*
X79559Y-42498D01*
X80032Y-42024D01*
X80032Y-42161D01*
X79627Y-42566D01*
X80101Y-43040D01*
X80203Y-42974D01*
X80269Y-42842D01*
X80309Y-42698D01*
X80321Y-42550D01*
X80321Y-52676D01*
X80032Y-52964D01*
X80032Y-43109D01*
X79559Y-42635D01*
X79490Y-42703D01*
X79490Y-42566D01*
X79016Y-42092D01*
X78915Y-42158D01*
X78848Y-42291D01*
X78808Y-42435D01*
X78796Y-42583D01*
X78814Y-42731D01*
X78860Y-42872D01*
X78915Y-42974D01*
X79016Y-43040D01*
X79490Y-42566D01*
X79490Y-42703D01*
X79085Y-43109D01*
X79151Y-43210D01*
X79283Y-43277D01*
X79427Y-43317D01*
X79575Y-43329D01*
X79723Y-43311D01*
X79864Y-43265D01*
X79967Y-43210D01*
X80032Y-43109D01*
X80032Y-52964D01*
X79976Y-53020D01*
X78002Y-53020D01*
X78002Y-44848D01*
X78002Y-44257D01*
X77997Y-44228D01*
X77986Y-44201D01*
X77969Y-44177D01*
X77949Y-44156D01*
X77925Y-44140D01*
X77898Y-44129D01*
X77869Y-44123D01*
X77840Y-44123D01*
X77249Y-44123D01*
X77220Y-44128D01*
X77193Y-44139D01*
X77169Y-44156D01*
X77148Y-44176D01*
X77132Y-44200D01*
X77121Y-44227D01*
X77115Y-44256D01*
X77115Y-44285D01*
X77115Y-44876D01*
X77121Y-44905D01*
X77132Y-44932D01*
X77148Y-44956D01*
X77168Y-44977D01*
X77192Y-44993D01*
X77219Y-45004D01*
X77248Y-45010D01*
X77277Y-45010D01*
X77868Y-45010D01*
X77897Y-45004D01*
X77924Y-44993D01*
X77948Y-44977D01*
X77969Y-44957D01*
X77985Y-44933D01*
X77996Y-44906D01*
X78002Y-44877D01*
X78002Y-44848D01*
X78002Y-53020D01*
X77963Y-53020D01*
X77963Y-48983D01*
X77950Y-48921D01*
X77926Y-48862D01*
X77891Y-48808D01*
X77846Y-48763D01*
X77793Y-48727D01*
X77734Y-48703D01*
X77705Y-48697D01*
X77561Y-48360D01*
X77567Y-48350D01*
X77593Y-48292D01*
X77608Y-48229D01*
X77609Y-48157D01*
X77596Y-48094D01*
X77572Y-48035D01*
X77537Y-47982D01*
X77492Y-47936D01*
X77439Y-47901D01*
X77380Y-47876D01*
X77317Y-47863D01*
X77253Y-47863D01*
X77191Y-47875D01*
X77131Y-47899D01*
X77078Y-47934D01*
X77032Y-47978D01*
X77023Y-47991D01*
X77023Y-44537D01*
X77009Y-44448D01*
X76977Y-44363D01*
X76962Y-44333D01*
X76890Y-44303D01*
X76822Y-44372D01*
X76822Y-44235D01*
X76792Y-44163D01*
X76709Y-44126D01*
X76620Y-44105D01*
X76530Y-44102D01*
X76440Y-44116D01*
X76355Y-44148D01*
X76326Y-44163D01*
X76321Y-44175D01*
X76321Y-42550D01*
X76303Y-42402D01*
X76257Y-42261D01*
X76203Y-42158D01*
X76101Y-42092D01*
X76032Y-42161D01*
X76032Y-42024D01*
X75967Y-41922D01*
X75834Y-41855D01*
X75690Y-41816D01*
X75542Y-41804D01*
X75394Y-41822D01*
X75253Y-41868D01*
X75151Y-41922D01*
X75085Y-42024D01*
X75559Y-42498D01*
X76032Y-42024D01*
X76032Y-42161D01*
X75627Y-42566D01*
X76101Y-43040D01*
X76203Y-42974D01*
X76269Y-42842D01*
X76309Y-42698D01*
X76321Y-42550D01*
X76321Y-44175D01*
X76295Y-44235D01*
X76559Y-44498D01*
X76822Y-44235D01*
X76822Y-44372D01*
X76627Y-44566D01*
X76890Y-44830D01*
X76962Y-44799D01*
X76999Y-44717D01*
X77020Y-44628D01*
X77023Y-44537D01*
X77023Y-47991D01*
X76996Y-48031D01*
X76971Y-48090D01*
X76958Y-48152D01*
X76957Y-48216D01*
X76968Y-48279D01*
X76992Y-48338D01*
X77027Y-48392D01*
X77071Y-48438D01*
X77123Y-48474D01*
X77182Y-48500D01*
X77215Y-48507D01*
X77360Y-48844D01*
X77351Y-48858D01*
X77325Y-48916D01*
X77312Y-48979D01*
X77311Y-49043D01*
X77323Y-49105D01*
X77346Y-49165D01*
X77381Y-49218D01*
X77425Y-49264D01*
X77478Y-49301D01*
X77536Y-49326D01*
X77599Y-49340D01*
X77662Y-49341D01*
X77725Y-49330D01*
X77785Y-49307D01*
X77839Y-49273D01*
X77885Y-49229D01*
X77922Y-49177D01*
X77948Y-49119D01*
X77962Y-49056D01*
X77963Y-48983D01*
X77963Y-53020D01*
X76822Y-53020D01*
X76822Y-44898D01*
X76559Y-44635D01*
X76490Y-44703D01*
X76490Y-44566D01*
X76227Y-44303D01*
X76155Y-44333D01*
X76118Y-44416D01*
X76097Y-44505D01*
X76094Y-44595D01*
X76108Y-44685D01*
X76140Y-44770D01*
X76155Y-44799D01*
X76227Y-44830D01*
X76490Y-44566D01*
X76490Y-44703D01*
X76295Y-44898D01*
X76326Y-44970D01*
X76408Y-45007D01*
X76497Y-45028D01*
X76588Y-45031D01*
X76677Y-45017D01*
X76762Y-44985D01*
X76792Y-44970D01*
X76822Y-44898D01*
X76822Y-53020D01*
X76427Y-53020D01*
X76427Y-51631D01*
X76428Y-51631D01*
X76465Y-51578D01*
X76491Y-51520D01*
X76505Y-51458D01*
X76506Y-51385D01*
X76494Y-51322D01*
X76469Y-51263D01*
X76434Y-51210D01*
X76427Y-51203D01*
X76427Y-47852D01*
X76428Y-47851D01*
X76465Y-47799D01*
X76491Y-47741D01*
X76505Y-47678D01*
X76506Y-47605D01*
X76494Y-47543D01*
X76469Y-47484D01*
X76434Y-47431D01*
X76389Y-47385D01*
X76336Y-47350D01*
X76277Y-47325D01*
X76215Y-47312D01*
X76151Y-47311D01*
X76088Y-47323D01*
X76032Y-47346D01*
X76032Y-43109D01*
X75559Y-42635D01*
X75490Y-42703D01*
X75490Y-42566D01*
X75016Y-42092D01*
X74915Y-42158D01*
X74848Y-42291D01*
X74808Y-42435D01*
X74796Y-42583D01*
X74814Y-42731D01*
X74860Y-42872D01*
X74915Y-42974D01*
X75016Y-43040D01*
X75490Y-42566D01*
X75490Y-42703D01*
X75085Y-43109D01*
X75151Y-43210D01*
X75283Y-43277D01*
X75427Y-43317D01*
X75575Y-43329D01*
X75723Y-43311D01*
X75864Y-43265D01*
X75967Y-43210D01*
X76032Y-43109D01*
X76032Y-47346D01*
X76029Y-47347D01*
X75976Y-47382D01*
X75930Y-47427D01*
X75894Y-47480D01*
X75869Y-47538D01*
X75855Y-47601D01*
X75855Y-47665D01*
X75866Y-47727D01*
X75890Y-47787D01*
X75924Y-47841D01*
X75934Y-47850D01*
X75934Y-51203D01*
X75930Y-51207D01*
X75894Y-51259D01*
X75869Y-51318D01*
X75855Y-51380D01*
X75855Y-51444D01*
X75866Y-51507D01*
X75890Y-51566D01*
X75924Y-51620D01*
X75934Y-51630D01*
X75934Y-53053D01*
X75930Y-53057D01*
X75894Y-53110D01*
X75869Y-53168D01*
X75855Y-53231D01*
X75855Y-53295D01*
X75866Y-53357D01*
X75890Y-53417D01*
X75924Y-53470D01*
X75946Y-53493D01*
X75771Y-53493D01*
X74420Y-52141D01*
X74420Y-41818D01*
X74407Y-41755D01*
X74383Y-41696D01*
X74348Y-41643D01*
X74303Y-41598D01*
X74282Y-41584D01*
X74282Y-41250D01*
X74295Y-41242D01*
X74342Y-41198D01*
X74378Y-41145D01*
X74404Y-41087D01*
X74419Y-41025D01*
X74420Y-40952D01*
X74407Y-40889D01*
X74383Y-40830D01*
X74348Y-40777D01*
X74303Y-40732D01*
X74250Y-40696D01*
X74191Y-40671D01*
X74128Y-40658D01*
X74064Y-40658D01*
X74002Y-40670D01*
X73942Y-40694D01*
X73889Y-40729D01*
X73878Y-40740D01*
X73869Y-40732D01*
X73817Y-40696D01*
X73758Y-40671D01*
X73695Y-40658D01*
X73631Y-40658D01*
X73569Y-40670D01*
X73509Y-40694D01*
X73456Y-40729D01*
X73445Y-40740D01*
X73436Y-40732D01*
X73383Y-40696D01*
X73325Y-40671D01*
X73262Y-40658D01*
X73198Y-40658D01*
X73135Y-40670D01*
X73076Y-40694D01*
X73023Y-40729D01*
X73011Y-40740D01*
X73003Y-40732D01*
X72950Y-40696D01*
X72892Y-40671D01*
X72829Y-40658D01*
X72765Y-40658D01*
X72702Y-40670D01*
X72643Y-40694D01*
X72590Y-40729D01*
X72578Y-40740D01*
X72570Y-40732D01*
X72517Y-40696D01*
X72458Y-40671D01*
X72396Y-40658D01*
X72332Y-40658D01*
X72269Y-40670D01*
X72210Y-40694D01*
X72157Y-40729D01*
X72111Y-40773D01*
X72075Y-40826D01*
X72050Y-40885D01*
X72037Y-40947D01*
X72036Y-41011D01*
X72047Y-41074D01*
X72071Y-41133D01*
X72105Y-41187D01*
X72150Y-41233D01*
X72174Y-41250D01*
X72174Y-44851D01*
X72157Y-44863D01*
X72111Y-44907D01*
X72075Y-44960D01*
X72050Y-45019D01*
X72037Y-45081D01*
X72036Y-45145D01*
X72047Y-45208D01*
X72071Y-45267D01*
X72105Y-45321D01*
X72150Y-45367D01*
X72202Y-45403D01*
X72261Y-45429D01*
X72323Y-45442D01*
X72387Y-45444D01*
X72450Y-45433D01*
X72509Y-45410D01*
X72563Y-45375D01*
X72609Y-45331D01*
X72646Y-45279D01*
X72672Y-45221D01*
X72686Y-45159D01*
X72687Y-45086D01*
X72675Y-45023D01*
X72651Y-44964D01*
X72615Y-44911D01*
X72570Y-44866D01*
X72550Y-44852D01*
X72550Y-44545D01*
X72583Y-44579D01*
X72635Y-44616D01*
X72694Y-44641D01*
X72756Y-44655D01*
X72820Y-44656D01*
X72883Y-44645D01*
X72942Y-44622D01*
X72996Y-44588D01*
X73042Y-44544D01*
X73079Y-44492D01*
X73105Y-44433D01*
X73119Y-44371D01*
X73120Y-44298D01*
X73108Y-44236D01*
X73084Y-44177D01*
X73048Y-44123D01*
X73003Y-44078D01*
X72983Y-44064D01*
X72983Y-43758D01*
X73016Y-43792D01*
X73068Y-43828D01*
X73127Y-43854D01*
X73189Y-43868D01*
X73253Y-43869D01*
X73316Y-43858D01*
X73375Y-43835D01*
X73429Y-43801D01*
X73476Y-43757D01*
X73512Y-43704D01*
X73538Y-43646D01*
X73552Y-43584D01*
X73553Y-43511D01*
X73541Y-43448D01*
X73517Y-43389D01*
X73481Y-43336D01*
X73436Y-43291D01*
X73416Y-43277D01*
X73416Y-42931D01*
X73449Y-42965D01*
X73501Y-43002D01*
X73560Y-43027D01*
X73622Y-43041D01*
X73686Y-43042D01*
X73749Y-43031D01*
X73808Y-43008D01*
X73862Y-42974D01*
X73909Y-42930D01*
X73945Y-42878D01*
X73971Y-42819D01*
X73986Y-42757D01*
X73987Y-42684D01*
X73974Y-42621D01*
X73950Y-42562D01*
X73914Y-42509D01*
X73869Y-42464D01*
X73849Y-42450D01*
X73849Y-42065D01*
X73882Y-42099D01*
X73934Y-42135D01*
X73993Y-42161D01*
X74055Y-42175D01*
X74119Y-42176D01*
X74182Y-42165D01*
X74242Y-42142D01*
X74295Y-42108D01*
X74342Y-42064D01*
X74378Y-42011D01*
X74404Y-41953D01*
X74419Y-41891D01*
X74420Y-41818D01*
X74420Y-52141D01*
X73671Y-51393D01*
X73672Y-51385D01*
X73659Y-51322D01*
X73635Y-51263D01*
X73599Y-51210D01*
X73593Y-51203D01*
X73593Y-46789D01*
X73594Y-46788D01*
X73630Y-46736D01*
X73656Y-46678D01*
X73671Y-46615D01*
X73672Y-46542D01*
X73659Y-46480D01*
X73635Y-46421D01*
X73599Y-46368D01*
X73555Y-46322D01*
X73502Y-46287D01*
X73443Y-46262D01*
X73380Y-46249D01*
X73316Y-46248D01*
X73254Y-46260D01*
X73194Y-46284D01*
X73141Y-46319D01*
X73133Y-46327D01*
X68947Y-46327D01*
X68947Y-44613D01*
X68935Y-44551D01*
X68910Y-44492D01*
X68875Y-44438D01*
X68830Y-44393D01*
X68777Y-44357D01*
X68718Y-44333D01*
X68656Y-44320D01*
X68592Y-44319D01*
X68529Y-44331D01*
X68470Y-44355D01*
X68417Y-44390D01*
X68371Y-44435D01*
X68356Y-44457D01*
X66683Y-44457D01*
X66670Y-44438D01*
X66625Y-44393D01*
X66572Y-44357D01*
X66514Y-44333D01*
X66451Y-44320D01*
X66387Y-44319D01*
X66324Y-44331D01*
X66265Y-44355D01*
X66212Y-44390D01*
X66166Y-44435D01*
X66130Y-44488D01*
X66105Y-44546D01*
X66092Y-44609D01*
X66091Y-44673D01*
X66102Y-44735D01*
X66126Y-44795D01*
X66160Y-44848D01*
X66205Y-44894D01*
X66257Y-44931D01*
X66316Y-44956D01*
X66378Y-44970D01*
X66442Y-44971D01*
X66505Y-44960D01*
X66564Y-44937D01*
X66618Y-44903D01*
X66664Y-44859D01*
X66683Y-44833D01*
X68355Y-44833D01*
X68365Y-44848D01*
X68410Y-44894D01*
X68462Y-44931D01*
X68520Y-44956D01*
X68583Y-44970D01*
X68647Y-44971D01*
X68710Y-44960D01*
X68769Y-44937D01*
X68823Y-44903D01*
X68869Y-44859D01*
X68906Y-44807D01*
X68932Y-44748D01*
X68946Y-44686D01*
X68947Y-44613D01*
X68947Y-46327D01*
X67812Y-46327D01*
X67806Y-46322D01*
X67754Y-46287D01*
X67695Y-46262D01*
X67632Y-46249D01*
X67568Y-46248D01*
X67506Y-46260D01*
X67446Y-46284D01*
X67393Y-46319D01*
X67347Y-46364D01*
X67311Y-46417D01*
X67286Y-46475D01*
X67273Y-46538D01*
X67272Y-46602D01*
X67283Y-46664D01*
X67307Y-46724D01*
X67342Y-46778D01*
X67351Y-46787D01*
X67351Y-51682D01*
X67136Y-51682D01*
X67136Y-48472D01*
X67124Y-48409D01*
X67099Y-48350D01*
X67064Y-48297D01*
X67019Y-48251D01*
X66966Y-48216D01*
X66907Y-48191D01*
X66845Y-48178D01*
X66781Y-48178D01*
X66765Y-48181D01*
X66500Y-47899D01*
X66505Y-47875D01*
X66506Y-47802D01*
X66494Y-47740D01*
X66469Y-47681D01*
X66434Y-47627D01*
X66389Y-47582D01*
X66336Y-47546D01*
X66277Y-47522D01*
X66215Y-47509D01*
X66151Y-47508D01*
X66088Y-47520D01*
X66029Y-47544D01*
X65976Y-47579D01*
X65930Y-47624D01*
X65894Y-47677D01*
X65869Y-47735D01*
X65855Y-47798D01*
X65855Y-47862D01*
X65866Y-47924D01*
X65890Y-47984D01*
X65924Y-48037D01*
X65969Y-48083D01*
X66021Y-48120D01*
X66080Y-48145D01*
X66142Y-48159D01*
X66206Y-48160D01*
X66227Y-48157D01*
X66492Y-48438D01*
X66485Y-48467D01*
X66485Y-48531D01*
X66496Y-48594D01*
X66520Y-48653D01*
X66554Y-48707D01*
X66598Y-48753D01*
X66651Y-48789D01*
X66709Y-48815D01*
X66772Y-48828D01*
X66836Y-48830D01*
X66899Y-48819D01*
X66958Y-48795D01*
X67012Y-48761D01*
X67058Y-48717D01*
X67095Y-48665D01*
X67121Y-48607D01*
X67135Y-48544D01*
X67136Y-48472D01*
X67136Y-51682D01*
X67086Y-51682D01*
X66243Y-51682D01*
X65994Y-51433D01*
X65994Y-51277D01*
X65995Y-51276D01*
X66032Y-51224D01*
X66058Y-51166D01*
X66072Y-51103D01*
X66073Y-51031D01*
X66061Y-50968D01*
X66036Y-50909D01*
X66001Y-50856D01*
X65956Y-50810D01*
X65903Y-50775D01*
X65844Y-50750D01*
X65782Y-50737D01*
X65718Y-50737D01*
X65655Y-50749D01*
X65596Y-50773D01*
X65543Y-50808D01*
X65497Y-50852D01*
X65461Y-50905D01*
X65436Y-50964D01*
X65422Y-51026D01*
X65422Y-51090D01*
X65433Y-51153D01*
X65457Y-51212D01*
X65491Y-51266D01*
X65501Y-51276D01*
X65501Y-51535D01*
X65503Y-51558D01*
X65505Y-51580D01*
X65505Y-51582D01*
X65505Y-51583D01*
X65512Y-51605D01*
X65518Y-51627D01*
X65519Y-51628D01*
X65519Y-51629D01*
X65530Y-51649D01*
X65541Y-51669D01*
X65541Y-51670D01*
X65542Y-51672D01*
X65556Y-51689D01*
X65571Y-51707D01*
X65572Y-51709D01*
X65572Y-51709D01*
X65572Y-51709D01*
X65573Y-51709D01*
X65967Y-52103D01*
X65984Y-52118D01*
X66002Y-52132D01*
X66003Y-52133D01*
X66004Y-52134D01*
X66024Y-52145D01*
X66044Y-52156D01*
X66045Y-52156D01*
X66046Y-52157D01*
X66068Y-52163D01*
X66090Y-52170D01*
X66091Y-52170D01*
X66092Y-52171D01*
X66115Y-52173D01*
X66138Y-52175D01*
X66140Y-52175D01*
X66140Y-52175D01*
X66140Y-52175D01*
X66141Y-52175D01*
X67086Y-52175D01*
X67351Y-52175D01*
X67351Y-52559D01*
X67353Y-52580D01*
X67355Y-52601D01*
X67356Y-52604D01*
X67356Y-52607D01*
X67362Y-52627D01*
X67368Y-52647D01*
X67369Y-52650D01*
X67370Y-52653D01*
X67380Y-52671D01*
X67389Y-52690D01*
X67391Y-52693D01*
X67392Y-52695D01*
X67406Y-52712D01*
X67419Y-52728D01*
X67421Y-52730D01*
X67423Y-52732D01*
X67439Y-52746D01*
X67455Y-52760D01*
X67458Y-52762D01*
X67912Y-53074D01*
X67913Y-53082D01*
X67937Y-53141D01*
X67971Y-53195D01*
X68016Y-53241D01*
X68068Y-53277D01*
X68127Y-53303D01*
X68189Y-53316D01*
X68253Y-53318D01*
X68316Y-53307D01*
X68375Y-53284D01*
X68429Y-53249D01*
X68441Y-53238D01*
X71911Y-53238D01*
X71913Y-53241D01*
X71966Y-53277D01*
X72024Y-53303D01*
X72087Y-53316D01*
X72151Y-53318D01*
X72213Y-53307D01*
X72273Y-53284D01*
X72327Y-53249D01*
X72373Y-53205D01*
X72410Y-53153D01*
X72436Y-53095D01*
X72450Y-53033D01*
X72451Y-52960D01*
X72439Y-52897D01*
X72414Y-52838D01*
X72379Y-52785D01*
X72334Y-52740D01*
X72281Y-52704D01*
X72222Y-52679D01*
X72160Y-52666D01*
X72096Y-52666D01*
X72033Y-52678D01*
X71974Y-52702D01*
X71920Y-52737D01*
X71912Y-52745D01*
X68442Y-52745D01*
X68436Y-52740D01*
X68383Y-52704D01*
X68325Y-52679D01*
X68262Y-52666D01*
X68198Y-52666D01*
X68192Y-52667D01*
X67845Y-52429D01*
X67845Y-52143D01*
X67846Y-52142D01*
X67882Y-52090D01*
X67908Y-52032D01*
X67923Y-51970D01*
X67924Y-51897D01*
X67911Y-51834D01*
X67887Y-51775D01*
X67851Y-51722D01*
X67845Y-51715D01*
X67845Y-46821D01*
X73099Y-46821D01*
X73099Y-51203D01*
X73095Y-51207D01*
X73059Y-51259D01*
X73034Y-51318D01*
X73021Y-51380D01*
X73020Y-51444D01*
X73031Y-51507D01*
X73055Y-51566D01*
X73090Y-51620D01*
X73134Y-51666D01*
X73186Y-51702D01*
X73245Y-51728D01*
X73307Y-51742D01*
X73322Y-51742D01*
X75494Y-53914D01*
X75512Y-53929D01*
X75529Y-53943D01*
X75530Y-53944D01*
X75531Y-53945D01*
X75552Y-53956D01*
X75572Y-53967D01*
X75573Y-53967D01*
X75574Y-53968D01*
X75596Y-53974D01*
X75617Y-53981D01*
X75619Y-53981D01*
X75620Y-53982D01*
X75643Y-53984D01*
X75665Y-53986D01*
X75668Y-53987D01*
X75668Y-53987D01*
X75668Y-53987D01*
X75669Y-53987D01*
X79510Y-53987D01*
X79512Y-53989D01*
X79564Y-54025D01*
X79623Y-54051D01*
X79685Y-54065D01*
X79749Y-54066D01*
X79812Y-54055D01*
X79871Y-54032D01*
X79925Y-53997D01*
X79937Y-53987D01*
X83144Y-53987D01*
X86846Y-56838D01*
X86850Y-56861D01*
X86874Y-56921D01*
X86908Y-56974D01*
X86953Y-57020D01*
X87005Y-57057D01*
X87064Y-57082D01*
X87126Y-57096D01*
X87190Y-57097D01*
X87253Y-57086D01*
X87312Y-57063D01*
X87366Y-57029D01*
X87413Y-56985D01*
X87449Y-56933D01*
X87475Y-56874D01*
X87489Y-56812D01*
X87490Y-56739D01*
X87478Y-56677D01*
X87454Y-56618D01*
X87418Y-56564D01*
X87373Y-56519D01*
X87331Y-56490D01*
X87331Y-49889D01*
X87318Y-49827D01*
X87294Y-49768D01*
X87259Y-49715D01*
X87215Y-49670D01*
X87162Y-49635D01*
X87103Y-49610D01*
X87041Y-49598D01*
X86978Y-49597D01*
X86916Y-49609D01*
X86857Y-49633D01*
X86804Y-49667D01*
X86758Y-49712D01*
X86723Y-49764D01*
X86698Y-49822D01*
X86684Y-49885D01*
X86684Y-49948D01*
X86695Y-50010D01*
X86718Y-50069D01*
X86753Y-50123D01*
X86797Y-50168D01*
X86849Y-50204D01*
X86907Y-50230D01*
X86969Y-50243D01*
X87032Y-50245D01*
X87095Y-50234D01*
X87154Y-50211D01*
X87207Y-50177D01*
X87253Y-50133D01*
X87290Y-50081D01*
X87316Y-50023D01*
X87330Y-49961D01*
X87331Y-49889D01*
X87331Y-56490D01*
X87320Y-56483D01*
X87262Y-56459D01*
X87199Y-56446D01*
X87146Y-56445D01*
X83595Y-53710D01*
X84826Y-52404D01*
X84855Y-52366D01*
X84877Y-52322D01*
X84883Y-52301D01*
X84901Y-52329D01*
X84945Y-52375D01*
X84997Y-52411D01*
X85056Y-52437D01*
X85118Y-52450D01*
X85182Y-52452D01*
X85186Y-52451D01*
X85185Y-52468D01*
X85197Y-52531D01*
X85220Y-52590D01*
X85255Y-52644D01*
X85299Y-52690D01*
X85352Y-52726D01*
X85410Y-52752D01*
X85473Y-52765D01*
X85536Y-52767D01*
X85599Y-52756D01*
X85659Y-52732D01*
X85713Y-52698D01*
X85759Y-52654D01*
X85796Y-52602D01*
X85822Y-52544D01*
X85836Y-52481D01*
X85837Y-52409D01*
X85825Y-52346D01*
X85800Y-52287D01*
X85765Y-52234D01*
X85720Y-52188D01*
X85699Y-52174D01*
X85699Y-49684D01*
X88288Y-47131D01*
X88307Y-47135D01*
X88371Y-47137D01*
X88434Y-47126D01*
X88493Y-47103D01*
X88547Y-47068D01*
X88594Y-47024D01*
X88630Y-46972D01*
X88656Y-46914D01*
X88671Y-46852D01*
X88672Y-46779D01*
X88672Y-60481D01*
X67103Y-60481D01*
X67103Y-59063D01*
X67079Y-58800D01*
X67004Y-58546D01*
X66881Y-58311D01*
X66872Y-58297D01*
X66710Y-58161D01*
X66642Y-58229D01*
X66642Y-58092D01*
X66505Y-57930D01*
X66272Y-57804D01*
X66019Y-57726D01*
X65756Y-57699D01*
X65492Y-57723D01*
X65239Y-57798D01*
X65004Y-57921D01*
X64990Y-57930D01*
X64854Y-58092D01*
X65748Y-58986D01*
X66642Y-58092D01*
X66642Y-58229D01*
X65816Y-59055D01*
X66710Y-59949D01*
X66872Y-59812D01*
X66998Y-59579D01*
X67076Y-59326D01*
X67103Y-59063D01*
X67103Y-60481D01*
X66642Y-60481D01*
X66642Y-60017D01*
X65748Y-59123D01*
X65679Y-59192D01*
X65679Y-59055D01*
X64785Y-58161D01*
X64623Y-58297D01*
X64497Y-58530D01*
X64419Y-58783D01*
X64392Y-59046D01*
X64416Y-59310D01*
X64491Y-59563D01*
X64614Y-59798D01*
X64623Y-59812D01*
X64785Y-59949D01*
X65679Y-59055D01*
X65679Y-59192D01*
X64854Y-60017D01*
X64990Y-60179D01*
X65223Y-60305D01*
X65476Y-60383D01*
X65739Y-60410D01*
X66003Y-60386D01*
X66256Y-60311D01*
X66491Y-60188D01*
X66505Y-60179D01*
X66642Y-60017D01*
X66642Y-60481D01*
X64321Y-60481D01*
X64321Y-54777D01*
X65058Y-56140D01*
X65063Y-56148D01*
X65069Y-56158D01*
X65079Y-56171D01*
X65085Y-56180D01*
X65091Y-56186D01*
X65099Y-56196D01*
X65111Y-56206D01*
X65119Y-56214D01*
X65126Y-56219D01*
X65136Y-56227D01*
X65150Y-56234D01*
X65159Y-56241D01*
X65168Y-56244D01*
X65178Y-56250D01*
X65193Y-56255D01*
X65204Y-56259D01*
X65213Y-56261D01*
X65224Y-56265D01*
X65239Y-56266D01*
X65251Y-56269D01*
X65260Y-56269D01*
X65272Y-56270D01*
X65275Y-56270D01*
X76905Y-56270D01*
X77824Y-57188D01*
X77824Y-58841D01*
X77820Y-58844D01*
X77784Y-58897D01*
X77759Y-58956D01*
X77745Y-59018D01*
X77744Y-59082D01*
X77756Y-59145D01*
X77779Y-59204D01*
X77814Y-59258D01*
X77858Y-59304D01*
X77911Y-59340D01*
X77969Y-59366D01*
X78032Y-59379D01*
X78095Y-59381D01*
X78158Y-59370D01*
X78218Y-59347D01*
X78272Y-59312D01*
X78283Y-59301D01*
X81439Y-59301D01*
X81441Y-59304D01*
X81493Y-59340D01*
X81552Y-59366D01*
X81614Y-59379D01*
X81678Y-59381D01*
X81741Y-59370D01*
X81801Y-59347D01*
X81854Y-59312D01*
X81901Y-59268D01*
X81938Y-59216D01*
X81963Y-59158D01*
X81978Y-59096D01*
X81979Y-59023D01*
X81966Y-58960D01*
X81942Y-58901D01*
X81907Y-58848D01*
X81862Y-58803D01*
X81809Y-58767D01*
X81750Y-58742D01*
X81687Y-58729D01*
X81623Y-58729D01*
X81561Y-58741D01*
X81501Y-58765D01*
X81448Y-58800D01*
X81440Y-58808D01*
X78317Y-58808D01*
X78317Y-57086D01*
X78315Y-57063D01*
X78313Y-57041D01*
X78313Y-57039D01*
X78313Y-57038D01*
X78306Y-57016D01*
X78300Y-56994D01*
X78299Y-56993D01*
X78299Y-56992D01*
X78288Y-56972D01*
X78277Y-56952D01*
X78277Y-56951D01*
X78276Y-56950D01*
X78262Y-56932D01*
X78247Y-56914D01*
X78246Y-56912D01*
X78246Y-56912D01*
X78245Y-56912D01*
X78245Y-56912D01*
X77182Y-55849D01*
X77164Y-55834D01*
X77147Y-55819D01*
X77146Y-55819D01*
X77145Y-55818D01*
X77125Y-55807D01*
X77105Y-55796D01*
X77103Y-55796D01*
X77102Y-55795D01*
X77080Y-55789D01*
X77059Y-55782D01*
X77057Y-55782D01*
X77056Y-55781D01*
X77033Y-55779D01*
X77011Y-55776D01*
X77008Y-55776D01*
X77008Y-55776D01*
X77008Y-55776D01*
X77007Y-55776D01*
X65422Y-55776D01*
X64735Y-54504D01*
X64735Y-53031D01*
X64735Y-52368D01*
X64738Y-52368D01*
X65289Y-52368D01*
X65318Y-52362D01*
X65345Y-52351D01*
X65369Y-52335D01*
X65389Y-52314D01*
X65406Y-52290D01*
X65417Y-52263D01*
X65423Y-52235D01*
X65423Y-52206D01*
X65423Y-51655D01*
X65417Y-51626D01*
X65406Y-51599D01*
X65390Y-51575D01*
X65370Y-51554D01*
X65345Y-51538D01*
X65319Y-51527D01*
X65290Y-51521D01*
X65261Y-51521D01*
X64735Y-51521D01*
X64735Y-51276D01*
X64792Y-51316D01*
X64868Y-51349D01*
X64949Y-51367D01*
X65032Y-51369D01*
X65114Y-51354D01*
X65191Y-51324D01*
X65261Y-51280D01*
X65322Y-51222D01*
X65369Y-51155D01*
X65403Y-51079D01*
X65422Y-50998D01*
X65423Y-50903D01*
X65407Y-50821D01*
X65404Y-50813D01*
X66316Y-49926D01*
X66339Y-49931D01*
X66403Y-49932D01*
X66465Y-49921D01*
X66525Y-49898D01*
X66579Y-49864D01*
X66625Y-49820D01*
X66662Y-49767D01*
X66688Y-49709D01*
X66702Y-49647D01*
X66703Y-49574D01*
X66691Y-49511D01*
X66666Y-49452D01*
X66631Y-49399D01*
X66586Y-49354D01*
X66533Y-49318D01*
X66474Y-49293D01*
X66412Y-49280D01*
X66348Y-49280D01*
X66285Y-49292D01*
X66226Y-49316D01*
X66172Y-49351D01*
X66127Y-49396D01*
X66091Y-49448D01*
X66066Y-49507D01*
X66052Y-49569D01*
X66051Y-49633D01*
X66056Y-49655D01*
X65444Y-50250D01*
X65444Y-46714D01*
X65430Y-46628D01*
X65399Y-46547D01*
X65386Y-46522D01*
X65317Y-46494D01*
X65249Y-46563D01*
X65068Y-46744D01*
X65317Y-46993D01*
X65386Y-46965D01*
X65422Y-46885D01*
X65442Y-46801D01*
X65444Y-46714D01*
X65444Y-50250D01*
X65444Y-50250D01*
X65444Y-49915D01*
X65429Y-49829D01*
X65399Y-49747D01*
X65386Y-49723D01*
X65317Y-49696D01*
X65248Y-49764D01*
X65068Y-49944D01*
X65317Y-50193D01*
X65386Y-50165D01*
X65422Y-50086D01*
X65441Y-50001D01*
X65444Y-49915D01*
X65444Y-50250D01*
X65248Y-50440D01*
X65141Y-50545D01*
X65125Y-50538D01*
X65044Y-50521D01*
X64961Y-50521D01*
X64879Y-50536D01*
X64802Y-50567D01*
X64735Y-50612D01*
X64735Y-50278D01*
X64751Y-50262D01*
X64779Y-50331D01*
X64858Y-50366D01*
X64942Y-50386D01*
X65029Y-50389D01*
X65115Y-50374D01*
X65196Y-50344D01*
X65220Y-50331D01*
X65248Y-50262D01*
X65000Y-50013D01*
X64994Y-50018D01*
X64925Y-49950D01*
X64931Y-49944D01*
X64925Y-49939D01*
X64994Y-49870D01*
X65000Y-49876D01*
X65248Y-49627D01*
X65220Y-49558D01*
X65141Y-49522D01*
X65057Y-49503D01*
X64970Y-49500D01*
X64884Y-49514D01*
X64803Y-49545D01*
X64779Y-49558D01*
X64751Y-49627D01*
X64735Y-49611D01*
X64735Y-49168D01*
X64738Y-49168D01*
X65290Y-49168D01*
X65318Y-49162D01*
X65345Y-49151D01*
X65369Y-49135D01*
X65390Y-49114D01*
X65406Y-49090D01*
X65417Y-49063D01*
X65423Y-49035D01*
X65424Y-49006D01*
X65423Y-48454D01*
X65418Y-48425D01*
X65407Y-48398D01*
X65391Y-48374D01*
X65370Y-48353D01*
X65346Y-48337D01*
X65319Y-48326D01*
X65291Y-48320D01*
X65261Y-48320D01*
X64735Y-48320D01*
X64735Y-48076D01*
X64792Y-48115D01*
X64868Y-48149D01*
X64949Y-48167D01*
X65032Y-48168D01*
X65114Y-48154D01*
X65192Y-48124D01*
X65262Y-48079D01*
X65322Y-48022D01*
X65370Y-47954D01*
X65404Y-47878D01*
X65422Y-47797D01*
X65423Y-47702D01*
X65407Y-47620D01*
X65376Y-47544D01*
X65330Y-47474D01*
X65271Y-47415D01*
X65249Y-47400D01*
X65202Y-47369D01*
X65125Y-47337D01*
X65044Y-47320D01*
X64961Y-47319D01*
X64879Y-47335D01*
X64802Y-47366D01*
X64735Y-47410D01*
X64735Y-47077D01*
X64750Y-47061D01*
X64778Y-47131D01*
X64858Y-47166D01*
X64942Y-47186D01*
X65029Y-47188D01*
X65115Y-47174D01*
X65197Y-47143D01*
X65221Y-47131D01*
X65249Y-47061D01*
X65000Y-46812D01*
X64994Y-46818D01*
X64925Y-46749D01*
X64931Y-46744D01*
X64925Y-46738D01*
X64994Y-46670D01*
X65000Y-46675D01*
X65249Y-46426D01*
X65221Y-46357D01*
X65141Y-46321D01*
X65057Y-46302D01*
X64970Y-46299D01*
X64884Y-46313D01*
X64802Y-46344D01*
X64778Y-46357D01*
X64750Y-46426D01*
X64735Y-46410D01*
X64735Y-46076D01*
X64792Y-46115D01*
X64868Y-46149D01*
X64949Y-46167D01*
X65032Y-46168D01*
X65114Y-46154D01*
X65192Y-46124D01*
X65262Y-46079D01*
X65322Y-46022D01*
X65370Y-45954D01*
X65404Y-45878D01*
X65422Y-45797D01*
X65423Y-45702D01*
X65407Y-45620D01*
X65376Y-45544D01*
X65330Y-45474D01*
X65271Y-45415D01*
X65202Y-45369D01*
X65125Y-45337D01*
X65044Y-45320D01*
X64961Y-45319D01*
X64879Y-45335D01*
X64802Y-45366D01*
X64735Y-45410D01*
X64735Y-44944D01*
X65850Y-43829D01*
X70157Y-43829D01*
X70166Y-43828D01*
X70174Y-43828D01*
X70189Y-43826D01*
X70205Y-43824D01*
X70213Y-43822D01*
X70222Y-43820D01*
X70236Y-43815D01*
X70251Y-43810D01*
X70259Y-43806D01*
X70267Y-43803D01*
X70280Y-43795D01*
X70294Y-43788D01*
X70300Y-43782D01*
X70308Y-43778D01*
X70319Y-43767D01*
X70331Y-43757D01*
X70336Y-43751D01*
X70343Y-43745D01*
X70345Y-43742D01*
X71015Y-42955D01*
X71026Y-42939D01*
X71030Y-42934D01*
X71032Y-42930D01*
X71042Y-42916D01*
X71050Y-42897D01*
X71053Y-42892D01*
X71055Y-42887D01*
X71062Y-42871D01*
X71066Y-42852D01*
X71068Y-42846D01*
X71068Y-42840D01*
X71072Y-42824D01*
X71072Y-42806D01*
X71073Y-42798D01*
X71073Y-42795D01*
X71073Y-42537D01*
X71074Y-42536D01*
X71111Y-42484D01*
X71137Y-42426D01*
X71151Y-42363D01*
X71152Y-42290D01*
X71139Y-42228D01*
X71118Y-42175D01*
X71309Y-42175D01*
X71309Y-42086D01*
X71313Y-42083D01*
X71324Y-42074D01*
X71324Y-42074D01*
X71325Y-42073D01*
X71333Y-42063D01*
X71342Y-42052D01*
X71343Y-42051D01*
X71343Y-42051D01*
X71350Y-42039D01*
X71356Y-42026D01*
X71357Y-42026D01*
X71357Y-42026D01*
X71361Y-42012D01*
X71365Y-41999D01*
X71365Y-41998D01*
X71365Y-41998D01*
X71367Y-41984D01*
X71368Y-41970D01*
X71368Y-41969D01*
X71368Y-41969D01*
X71368Y-41969D01*
X71368Y-41968D01*
X71368Y-39912D01*
X95520Y-39912D01*
X95520Y-60481D01*
M02*
