M48
;DRILL file {Pcbnew (2013-04-05 BZR 4064)-testing} date 05/08/2013 18:39:32
;FORMAT={-:-/ absolute / metric / decimal}
FMAT,2
METRIC,TZ
T1C0.400
T2C0.800
T3C0.900
T4C1.000
T5C1.800
T6C3.600
%
G90
G05
M71
T1
X164.8Y-110.
X165.8Y-145.2
X166.4Y-139.8
X166.6Y-135.6
X167.Y-113.4
X167.Y-129.7
X168.1Y-121.5
X168.6Y-126.
X168.7Y-113.4
X169.2Y-118.
X169.7Y-123.2
X170.3Y-125.8
X171.4Y-145.2
X171.6Y-136.2
X171.7Y-118.3
X171.7Y-131.9
X172.4Y-151.2
X173.Y-112.
X173.3Y-134.6
X174.3Y-113.4
X175.Y-145.2
X177.4Y-147.8
X178.2Y-151.4
X178.4Y-125.6
X178.7Y-116.7
X179.2Y-145.
X179.9Y-107.5
X182.4Y-151.4
X182.6Y-145.4
X183.2Y-134.6
X183.8Y-104.1
X183.8Y-114.6
X184.9Y-104.1
X184.9Y-112.6
X185.4Y-145.
X185.8Y-151.4
X186.Y-104.1
X186.Y-110.6
X186.2Y-136.
X186.3Y-118.3
X186.3Y-130.6
X187.1Y-104.1
X187.1Y-108.5
X188.2Y-104.1
X188.2Y-106.3
X188.6Y-125.
X190.Y-111.2
X191.Y-105.2
X191.Y-130.6
X191.Y-134.
X192.1Y-122.8
X192.1Y-127.5
X192.4Y-118.6
X193.5Y-121.
X193.5Y-130.6
X193.5Y-135.3
X195.4Y-105.2
X196.3Y-122.4
X196.4Y-134.
X197.2Y-111.
X197.2Y-124.5
X198.3Y-150.
X201.1Y-123.075
X202.Y-134.
X202.2Y-105.
X202.2Y-129.4
X202.5Y-136.5
X206.4Y-120.6
X206.4Y-128.6
X207.Y-105.
X207.4Y-150.
X208.Y-125.
X208.2Y-110.6
X208.2Y-115.
X208.6Y-140.6
X209.4Y-134.2
X210.4Y-128.
X213.2Y-151.
X213.6Y-146.4
X213.8Y-140.6
X214.Y-110.6
X214.1Y-125.1
X214.2Y-104.4
X215.Y-121.2
X216.3Y-119.2
X216.3Y-132.4
X216.6Y-137.
X217.2Y-133.2
X217.6Y-146.6
X218.6Y-104.4
X220.2Y-120.4
X221.Y-126.8
X221.2Y-134.2
X221.2Y-139.4
X221.4Y-144.2
X221.5Y-116.2
X223.6Y-144.
X224.4Y-118.9
X225.Y-111.
X225.8Y-104.6
X227.Y-139.6
X227.4Y-134.2
X228.2Y-144.2
X231.4Y-104.6
X232.2Y-111.4
X232.4Y-133.4
X232.4Y-139.
X233.4Y-144.6
X233.6Y-120.6
X233.6Y-126.4
X233.6Y-147.4
X236.8Y-118.
X236.8Y-122.6
X241.2Y-111.6
X241.2Y-118.
X241.2Y-122.6
X241.2Y-126.2
T2
X165.1Y-116.19
X165.1Y-118.73
X165.1Y-121.27
X165.1Y-123.81
X165.1Y-126.86
X165.1Y-129.4
X165.1Y-131.94
T3
X194.46Y-113.2
X197.Y-113.2
X224.46Y-113.2
X227.Y-113.2
T4
X235.73Y-130.
X235.73Y-136.
X235.73Y-142.
X238.27Y-130.
X238.27Y-136.
X238.27Y-142.
T5
X191.92Y-108.12
X202.08Y-108.12
X221.92Y-108.12
X232.08Y-108.12
T6
X167.Y-105.
X167.Y-150.
X239.Y-105.
X239.Y-150.
T0
M30
